999
dxfrw 0.6.3
  0
SECTION
  2
HEADER
  9
$ACADVER
  1
AC1021
  9
$DWGCODEPAGE
  3
ANSI_1252
  9
$INSBASE
 10
0
 20
0
 30
0
  9
$EXTMIN
 10
15
 20
5
 30
0
  9
$EXTMAX
 10
415
 20
292
 30
0
  9
$LIMMIN
 10
0
 20
0
  9
$LIMMAX
 10
420
 20
297
  9
$ORTHOMODE
 70
    0
  9
$REGENMODE
 70
    1
  9
$FILLMODE
 70
    1
  9
$QTEXTMODE
 70
    0
  9
$MIRRTEXT
 70
    1
  9
$LTSCALE
 40
1
  9
$ATTMODE
 70
    1
  9
$TEXTSIZE
 40
2.5
  9
$TRACEWID
 40
1
  9
$TEXTSTYLE
  7
Standard
  9
$CLAYER
  8
0
  9
$CELTYPE
  6
ByLayer
  9
$CECOLOR
 62
  256
  9
$CELTSCALE
 40
1
  9
$DISPSILH
 70
    0
  9
$DIMSCALE
 40
1
  9
$DIMASZ
 40
2.5
  9
$DIMEXO
 40
0.625
  9
$DIMDLI
 40
3.75
  9
$DIMRND
 40
0.01
  9
$DIMDLE
 40
0
  9
$DIMEXE
 40
1.25
  9
$DIMTP
 40
0
  9
$DIMTM
 40
0
  9
$DIMTXT
 40
2.5
  9
$DIMCEN
 40
2.5
  9
$DIMTSZ
 40
0
  9
$DIMTOL
 70
    0
  9
$DIMLIM
 70
    0
  9
$DIMTIH
 70
    0
  9
$DIMTOH
 70
    0
  9
$DIMSE1
 70
    0
  9
$DIMSE2
 70
    0
  9
$DIMTAD
 70
    1
  9
$DIMZIN
 70
    8
  9
$DIMBLK
  1

  9
$DIMASO
 70
    1
  9
$DIMSHO
 70
    1
  9
$DIMPOST
  1

  9
$DIMAPOST
  1

  9
$DIMALT
 70
    0
  9
$DIMALTD
 70
    3
  9
$DIMALTF
 40
0.0393700787401575
  9
$DIMLFAC
 40
1
  9
$DIMTOFL
 70
    1
  9
$DIMTVP
 40
0
  9
$DIMTIX
 70
    0
  9
$DIMSOXD
 70
    0
  9
$DIMSAH
 70
    0
  9
$DIMBLK1
  1

  9
$DIMBLK2
  1

  9
$DIMSTYLE
  2
ISO-25
  9
$DIMCLRD
 70
    0
  9
$DIMCLRE
 70
    0
  9
$DIMCLRT
 70
    0
  9
$DIMTFAC
 40
1
  9
$DIMGAP
 40
0.7
  9
$DIMJUST
 70
    0
  9
$DIMSD1
 70
    0
  9
$DIMSD2
 70
    0
  9
$DIMTOLJ
 70
    0
  9
$DIMTZIN
 70
    8
  9
$DIMALTZ
 70
    0
  9
$DIMALTTZ
 70
    0
  9
$DIMUPT
 70
    0
  9
$DIMDEC
 70
    2
  9
$DIMTDEC
 70
    2
  9
$DIMALTU
 70
    2
  9
$DIMALTTD
 70
    3
  9
$DIMTXSTY
  7
Standard
  9
$DIMAUNIT
 70
    0
  9
$DIMADEC
 70
    0
  9
$DIMALTRND
 40
0
  9
$DIMAZIN
 70
    0
  9
$DIMDSEP
 70
   44
  9
$DIMATFIT
 70
    3
  9
$DIMFRAC
 70
    2
  9
$DIMLDRBLK
  1

  9
$DIMLUNIT
 70
    2
  9
$DIMLWD
 70
   15
  9
$DIMLWE
 70
   15
  9
$DIMTMOVE
 70
    0
  9
$DIMFXL
 40
1
  9
$DIMFXLON
 70
    0
  9
$DIMJOGANG
 40
0.7853981633974483
  9
$DIMTFILL
 70
    0
  9
$DIMTFILLCLR
 70
    0
  9
$DIMARCSYM
 70
    0
  9
$DIMLTYPE
  6

  9
$DIMLTEX1
  6

  9
$DIMLTEX2
  6

  9
$LUNITS
 70
    2
  9
$LUPREC
 70
    4
  9
$SKETCHINC
 40
1
  9
$FILLETRAD
 40
0
  9
$AUNITS
 70
    0
  9
$AUPREC
 70
    0
  9
$MENU
  1
.
  9
$ELEVATION
 40
0
  9
$PELEVATION
 40
0
  9
$THICKNESS
 40
0
  9
$LIMCHECK
 70
    0
  9
$CHAMFERA
 40
0
  9
$CHAMFERB
 40
0
  9
$CHAMFERC
 40
0
  9
$CHAMFERD
 40
0
  9
$SKPOLY
 70
    0
  9
$USRTIMER
 70
    1
  9
$ANGBASE
 50
0
  9
$ANGDIR
 70
    0
  9
$PDMODE
 70
    0
  9
$PDSIZE
 40
0
  9
$PLINEWID
 40
0
  9
$SPLFRAME
 70
    0
  9
$SPLINETYPE
 70
    6
  9
$SPLINESEGS
 70
    8
  9
$HANDSEED
  5
20000
  9
$SURFTAB1
 70
    6
  9
$SURFTAB2
 70
    6
  9
$SURFTYPE
 70
    6
  9
$SURFU
 70
    6
  9
$SURFV
 70
    6
  9
$UCSBASE
  2

  9
$UCSNAME
  2

  9
$UCSORG
 10
0
 20
0
 30
0
  9
$UCSXDIR
 10
1
 20
0
 30
0
  9
$UCSYDIR
 10
0
 20
1
 30
0
  9
$UCSORTHOREF
  2

  9
$UCSORTHOVIEW
 70
    0
  9
$UCSORGTOP
 10
0
 20
0
 30
0
  9
$UCSORGBOTTOM
 10
0
 20
0
 30
0
  9
$UCSORGLEFT
 10
0
 20
0
 30
0
  9
$UCSORGRIGHT
 10
0
 20
0
 30
0
  9
$UCSORGFRONT
 10
0
 20
0
 30
0
  9
$UCSORGBACK
 10
0
 20
0
 30
0
  9
$PUCSBASE
  2

  9
$PUCSNAME
  2

  9
$PUCSORG
 10
0
 20
0
 30
0
  9
$PUCSXDIR
 10
1
 20
0
 30
0
  9
$PUCSYDIR
 10
0
 20
1
 30
0
  9
$PUCSORTHOREF
  2

  9
$PUCSORTHOVIEW
 70
    0
  9
$PUCSORGTOP
 10
0
 20
0
 30
0
  9
$PUCSORGBOTTOM
 10
0
 20
0
 30
0
  9
$PUCSORGLEFT
 10
0
 20
0
 30
0
  9
$PUCSORGRIGHT
 10
0
 20
0
 30
0
  9
$PUCSORGFRONT
 10
0
 20
0
 30
0
  9
$PUCSORGBACK
 10
0
 20
0
 30
0
  9
$USERI1
 70
    0
  9
$USERI2
 70
    0
  9
$USERI3
 70
    0
  9
$USERI4
 70
    0
  9
$USERI5
 70
    0
  9
$USERR1
 40
0
  9
$USERR2
 40
0
  9
$USERR3
 40
0
  9
$USERR4
 40
0
  9
$USERR5
 40
0
  9
$WORLDVIEW
 70
    1
  9
$SHADEDGE
 70
    3
  9
$SHADEDIF
 70
   70
  9
$TILEMODE
 70
    0
  9
$MAXACTVP
 70
   64
  9
$PINSBASE
 10
0
 20
0
 30
0
  9
$PLIMCHECK
 70
    0
  9
$PEXTMIN
 10
0
 20
0
 30
0
  9
$PEXTMAX
 10
0
 20
0
 30
0
  9
$GRIDMODE
 70
    1
  9
$SNAPSTYLE
 70
    0
  9
$PLIMMIN
 10
-20
 20
-7.5
  9
$PLIMMAX
 10
277
 20
202.5
  9
$UNITMODE
 70
    0
  9
$VISRETAIN
 70
    1
  9
$PLINEGEN
 70
    0
  9
$PSLTSCALE
 70
    1
  9
$TREEDEPTH
 70
 3020
  9
$CMLSTYLE
  2
Standard
  9
$CMLJUST
 70
    0
  9
$CMLSCALE
 40
20
  9
$PROXYGRAPHICS
 70
    1
  9
$MEASUREMENT
 70
    1
  9
$CELWEIGHT
370
   -1
  9
$ENDCAPS
280
    0
  9
$JOINSTYLE
280
    0
  9
$LWDISPLAY
290
    0
  9
$INSUNITS
 70
    4
  9
$HYPERLINKBASE
  1

  9
$STYLESHEET
  1

  9
$XEDIT
290
    1
  9
$CEPSNTYPE
380
    0
  9
$PSTYLEMODE
290
    1
  9
$EXTNAMES
290
    1
  9
$PSVPSCALE
 40
0
  9
$OLESTARTUP
290
    0
  9
$SORTENTS
280
  127
  9
$INDEXCTL
280
    0
  9
$HIDETEXT
280
    1
  9
$XCLIPFRAME
290
    2
  9
$HALOGAP
280
    0
  9
$OBSCOLOR
 70
  257
  9
$OBSLTYPE
280
    0
  9
$INTERSECTIONDISPLAY
280
    0
  9
$INTERSECTIONCOLOR
 70
  257
  9
$DIMASSOC
280
    2
  9
$PROJECTNAME
  1

  9
$CAMERADISPLAY
290
    0
  9
$LENSLENGTH
 40
50
  9
$CAMERAHEIGHT
 40
0
  9
$STEPSPERSEC
 40
2
  9
$STEPSIZE
 40
6
  9
$3DDWFPREC
 40
2
  9
$PSOLWIDTH
 40
5
  9
$PSOLHEIGHT
 40
80
  9
$LOFTANG1
 40
1.570796326794897
  9
$LOFTANG2
 40
1.570796326794897
  9
$LOFTMAG1
 40
0
  9
$LOFTMAG2
 40
0
  9
$LOFTPARAM
 70
    7
  9
$LOFTNORMALS
280
    1
  9
$LATITUDE
 40
37.795
  9
$LONGITUDE
 40
-122.394
  9
$NORTHDIRECTION
 40
0
  9
$TIMEZONE
 70
-8000
  9
$LIGHTGLYPHDISPLAY
280
    1
  9
$TILEMODELIGHTSYNCH
280
    1
  9
$SOLIDHIST
280
    0
  9
$SHOWHIST
280
    1
  9
$DWFFRAME
280
    2
  9
$DGNFRAME
280
    2
  9
$REALWORLDSCALE
290
    1
  9
$INTERFERECOLOR
 62
  256
  9
$CSHADOW
280
    0
  9
$SHADOWPLANELOCATION
 40
0
  0
ENDSEC
  0
SECTION
  2
CLASSES
  0
ENDSEC
  0
SECTION
  2
TABLES
  0
TABLE
  2
VPORT
  5
8
330
0
100
AcDbSymbolTable
 70
    1
  0
VPORT
  5
31
330
2
100
AcDbSymbolTableRecord
100
AcDbViewportTableRecord
  2
*ACTIVE
 70
    0
 10
0
 20
0
 11
1
 21
1
 12
334.4051305762178
 22
205.6410329498932
 13
0
 23
0
 14
10
 24
10
 15
10
 25
10
 16
0
 26
0
 36
1
 17
0
 27
0
 37
0
 40
496.3617511462172
 41
2.684089162182936
 42
50
 43
0
 44
0
 50
0
 51
0
 71
    0
 72
  100
 73
    1
 74
    3
 75
    0
 76
    1
 77
    0
 78
    0
281
    0
 65
    1
110
0
120
0
130
0
111
1
121
0
131
0
112
0
122
1
132
0
 79
    0
146
0
348
10020
 60
    7
 61
    5
292
1
282
    1
141
0
142
0
 63
  250
421
3358443
  0
ENDTAB
  0
TABLE
  2
LTYPE
  5
5
330
0
100
AcDbSymbolTable
 70
    4
  0
LTYPE
  5
14
330
5
100
AcDbSymbolTableRecord
100
AcDbLinetypeTableRecord
  2
ByBlock
 70
    0
  3

 72
   65
 73
    0
 40
0
  0
LTYPE
  5
15
330
5
100
AcDbSymbolTableRecord
100
AcDbLinetypeTableRecord
  2
ByLayer
 70
    0
  3

 72
   65
 73
    0
 40
0
  0
LTYPE
  5
16
330
5
100
AcDbSymbolTableRecord
100
AcDbLinetypeTableRecord
  2
Continuous
 70
    0
  3
Solid line
 72
   65
 73
    0
 40
0
  0
LTYPE
  5
32
330
5
100
AcDbSymbolTableRecord
100
AcDbLinetypeTableRecord
  2
DOT
 70
    0
  3
Dot . . . . . . . . . . . . . . . . . . . . . .
 72
   65
 73
    2
 40
6.35
 49
0
 74
    0
 49
-6.35
 74
    0
  0
LTYPE
  5
33
330
5
100
AcDbSymbolTableRecord
100
AcDbLinetypeTableRecord
  2
DOTTINY
 70
    0
  3
Dot (.15x) .....................................
 72
   65
 73
    2
 40
0.9525
 49
0
 74
    0
 49
-0.9525
 74
    0
  0
LTYPE
  5
34
330
5
100
AcDbSymbolTableRecord
100
AcDbLinetypeTableRecord
  2
DOT2
 70
    0
  3
Dot (.5x) .....................................
 72
   65
 73
    2
 40
3.175
 49
0
 74
    0
 49
-3.175
 74
    0
  0
LTYPE
  5
35
330
5
100
AcDbSymbolTableRecord
100
AcDbLinetypeTableRecord
  2
DOTX2
 70
    0
  3
Dot (2x) .  .  .  .  .  .  .  .  .  .  .  .  .
 72
   65
 73
    2
 40
12.7
 49
0
 74
    0
 49
-12.7
 74
    0
  0
LTYPE
  5
36
330
5
100
AcDbSymbolTableRecord
100
AcDbLinetypeTableRecord
  2
DASHED
 70
    0
  3
Dashed _ _ _ _ _ _ _ _ _ _ _ _ _ _ _ _ _
 72
   65
 73
    2
 40
19.05
 49
12.7
 74
    0
 49
-6.35
 74
    0
  0
LTYPE
  5
37
330
5
100
AcDbSymbolTableRecord
100
AcDbLinetypeTableRecord
  2
DASHEDTINY
 70
    0
  3
Dashed (.15x) _ _ _ _ _ _ _ _ _ _ _ _ _ _ _ _ _
 72
   65
 73
    2
 40
2.8575
 49
1.905
 74
    0
 49
-0.9525
 74
    0
  0
LTYPE
  5
38
330
5
100
AcDbSymbolTableRecord
100
AcDbLinetypeTableRecord
  2
DASHED2
 70
    0
  3
Dashed (.5x) _ _ _ _ _ _ _ _ _ _ _ _ _ _ _ _ _
 72
   65
 73
    2
 40
9.524999999999999
 49
6.35
 74
    0
 49
-3.175
 74
    0
  0
LTYPE
  5
39
330
5
100
AcDbSymbolTableRecord
100
AcDbLinetypeTableRecord
  2
DASHEDX2
 70
    0
  3
Dashed (2x) ____  ____  ____  ____  ____  ___
 72
   65
 73
    2
 40
38.09999999999999
 49
25.4
 74
    0
 49
-12.7
 74
    0
  0
LTYPE
  5
3A
330
5
100
AcDbSymbolTableRecord
100
AcDbLinetypeTableRecord
  2
DASHDOT
 70
    0
  3
Dash dot __ . __ . __ . __ . __ . __ . __ . __
 72
   65
 73
    4
 40
25.4
 49
12.7
 74
    0
 49
-6.35
 74
    0
 49
0
 74
    0
 49
-6.35
 74
    0
  0
LTYPE
  5
3B
330
5
100
AcDbSymbolTableRecord
100
AcDbLinetypeTableRecord
  2
DASHDOTTINY
 70
    0
  3
Dash dot (.15x) _._._._._._._._._._._._._._._.
 72
   65
 73
    4
 40
3.81
 49
1.905
 74
    0
 49
-0.9525
 74
    0
 49
0
 74
    0
 49
-0.9525
 74
    0
  0
LTYPE
  5
3C
330
5
100
AcDbSymbolTableRecord
100
AcDbLinetypeTableRecord
  2
DASHDOT2
 70
    0
  3
Dash dot (.5x) _._._._._._._._._._._._._._._.
 72
   65
 73
    4
 40
12.7
 49
6.35
 74
    0
 49
-3.175
 74
    0
 49
0
 74
    0
 49
-3.175
 74
    0
  0
LTYPE
  5
3D
330
5
100
AcDbSymbolTableRecord
100
AcDbLinetypeTableRecord
  2
DASHDOTX2
 70
    0
  3
Dash dot (2x) ____  .  ____  .  ____  .  ___
 72
   65
 73
    4
 40
50.8
 49
25.4
 74
    0
 49
-12.7
 74
    0
 49
0
 74
    0
 49
-12.7
 74
    0
  0
LTYPE
  5
3E
330
5
100
AcDbSymbolTableRecord
100
AcDbLinetypeTableRecord
  2
DIVIDE
 70
    0
  3
Divide ____ . . ____ . . ____ . . ____ . . ____
 72
   65
 73
    6
 40
31.75
 49
12.7
 74
    0
 49
-6.35
 74
    0
 49
0
 74
    0
 49
-6.35
 74
    0
 49
0
 74
    0
 49
-6.35
 74
    0
  0
LTYPE
  5
3F
330
5
100
AcDbSymbolTableRecord
100
AcDbLinetypeTableRecord
  2
DIVIDETINY
 70
    0
  3
Divide (.15x) __..__..__..__..__..__..__..__.._
 72
   65
 73
    6
 40
4.7625
 49
1.905
 74
    0
 49
-0.9525
 74
    0
 49
0
 74
    0
 49
-0.9525
 74
    0
 49
0
 74
    0
 49
-0.9525
 74
    0
  0
LTYPE
  5
40
330
5
100
AcDbSymbolTableRecord
100
AcDbLinetypeTableRecord
  2
DIVIDE2
 70
    0
  3
Divide (.5x) __..__..__..__..__..__..__..__.._
 72
   65
 73
    6
 40
15.875
 49
6.35
 74
    0
 49
-3.175
 74
    0
 49
0
 74
    0
 49
-3.175
 74
    0
 49
0
 74
    0
 49
-3.175
 74
    0
  0
LTYPE
  5
41
330
5
100
AcDbSymbolTableRecord
100
AcDbLinetypeTableRecord
  2
DIVIDEX2
 70
    0
  3
Divide (2x) ________  .  .  ________  .  .  _
 72
   65
 73
    6
 40
63.5
 49
25.4
 74
    0
 49
-12.7
 74
    0
 49
0
 74
    0
 49
-12.7
 74
    0
 49
0
 74
    0
 49
-12.7
 74
    0
  0
LTYPE
  5
42
330
5
100
AcDbSymbolTableRecord
100
AcDbLinetypeTableRecord
  2
BORDER
 70
    0
  3
Border __ __ . __ __ . __ __ . __ __ . __ __ .
 72
   65
 73
    6
 40
44.45
 49
12.7
 74
    0
 49
-6.35
 74
    0
 49
12.7
 74
    0
 49
-6.35
 74
    0
 49
0
 74
    0
 49
-6.35
 74
    0
  0
LTYPE
  5
43
330
5
100
AcDbSymbolTableRecord
100
AcDbLinetypeTableRecord
  2
BORDERTINY
 70
    0
  3
Border (.15x) __.__.__.__.__.__.__.__.__.__.__.
 72
   65
 73
    6
 40
6.6675
 49
1.905
 74
    0
 49
-0.9525
 74
    0
 49
1.905
 74
    0
 49
-0.9525
 74
    0
 49
0
 74
    0
 49
-0.9525
 74
    0
  0
LTYPE
  5
44
330
5
100
AcDbSymbolTableRecord
100
AcDbLinetypeTableRecord
  2
BORDER2
 70
    0
  3
Border (.5x) __.__.__.__.__.__.__.__.__.__.__.
 72
   65
 73
    6
 40
22.225
 49
6.35
 74
    0
 49
-3.175
 74
    0
 49
6.35
 74
    0
 49
-3.175
 74
    0
 49
0
 74
    0
 49
-3.175
 74
    0
  0
LTYPE
  5
45
330
5
100
AcDbSymbolTableRecord
100
AcDbLinetypeTableRecord
  2
BORDERX2
 70
    0
  3
Border (2x) ____  ____  .  ____  ____  .  ___
 72
   65
 73
    6
 40
88.89999999999999
 49
25.4
 74
    0
 49
-12.7
 74
    0
 49
25.4
 74
    0
 49
-12.7
 74
    0
 49
0
 74
    0
 49
-12.7
 74
    0
  0
LTYPE
  5
46
330
5
100
AcDbSymbolTableRecord
100
AcDbLinetypeTableRecord
  2
CENTER
 70
    0
  3
Center ____ _ ____ _ ____ _ ____ _ ____ _ ____
 72
   65
 73
    4
 40
50.8
 49
31.75
 74
    0
 49
-6.35
 74
    0
 49
6.35
 74
    0
 49
-6.35
 74
    0
  0
LTYPE
  5
47
330
5
100
AcDbSymbolTableRecord
100
AcDbLinetypeTableRecord
  2
CENTERTINY
 70
    0
  3
Center (.15x) ___ _ ___ _ ___ _ ___ _ ___ _ ___
 72
   65
 73
    4
 40
7.619999999999999
 49
4.7625
 74
    0
 49
-0.9525
 74
    0
 49
0.9525
 74
    0
 49
-0.9525
 74
    0
  0
LTYPE
  5
48
330
5
100
AcDbSymbolTableRecord
100
AcDbLinetypeTableRecord
  2
CENTER2
 70
    0
  3
Center (.5x) ___ _ ___ _ ___ _ ___ _ ___ _ ___
 72
   65
 73
    4
 40
28.575
 49
19.05
 74
    0
 49
-3.175
 74
    0
 49
3.175
 74
    0
 49
-3.175
 74
    0
  0
LTYPE
  5
49
330
5
100
AcDbSymbolTableRecord
100
AcDbLinetypeTableRecord
  2
CENTERX2
 70
    0
  3
Center (2x) ________  __  ________  __  _____
 72
   65
 73
    4
 40
101.6
 49
63.5
 74
    0
 49
-12.7
 74
    0
 49
12.7
 74
    0
 49
-12.7
 74
    0
  0
ENDTAB
  0
TABLE
  2
LAYER
  5
2
330
0
100
AcDbSymbolTable
 70
    1
  0
LAYER
  5
10
330
2
100
AcDbSymbolTableRecord
100
AcDbLayerTableRecord
  2
0
 70
    0
 62
    7
  6
CONTINUOUS
370
   -3
390
F
  0
LAYER
  5
4A
330
2
100
AcDbSymbolTableRecord
100
AcDbLayerTableRecord
  2
Annotations
 70
    0
 62
    7
  6
CONTINUOUS
370
   -3
390
F
  0
LAYER
  5
4B
330
2
100
AcDbSymbolTableRecord
100
AcDbLayerTableRecord
  2
Border
 70
    0
 62
    7
  6
CONTINUOUS
370
   -3
390
F
  0
LAYER
  5
4C
330
2
100
AcDbSymbolTableRecord
100
AcDbLayerTableRecord
  2
Geometries
 70
    0
 62
    7
  6
CONTINUOUS
370
   -3
390
F
  0
ENDTAB
  0
TABLE
  2
STYLE
  5
3
330
0
100
AcDbSymbolTable
 70
    3
  0
STYLE
  5
4D
330
2
100
AcDbSymbolTableRecord
100
AcDbTextStyleTableRecord
  2
Standard
 70
    0
 40
0
 41
1
 50
0
 71
    0
 42
1
  3
txt
  4

  0
ENDTAB
  0
TABLE
  2
VIEW
  5
6
330
0
100
AcDbSymbolTable
 70
    0
  0
ENDTAB
  0
TABLE
  2
UCS
  5
7
330
0
100
AcDbSymbolTable
 70
    0
  0
ENDTAB
  0
TABLE
  2
APPID
  5
9
330
0
100
AcDbSymbolTable
 70
    1
  0
APPID
  5
12
330
9
100
AcDbSymbolTableRecord
100
AcDbRegAppTableRecord
  2
ACAD
 70
    0
  0
APPID
  5
4E
330
9
100
AcDbSymbolTableRecord
100
AcDbRegAppTableRecord
  2
LibreCad
 70
    0
  0
ENDTAB
  0
TABLE
  2
DIMSTYLE
  5
A
330
0
100
AcDbSymbolTable
 70
    1
100
AcDbDimStyleTable
 71
    1
  0
DIMSTYLE
105
4F
330
A
100
AcDbSymbolTableRecord
100
AcDbDimStyleTableRecord
  2
Standard
 70
    0
 40
1
 41
2.5
 42
0.625
 43
0.38
 44
1.25
 45
0
 46
0
 47
0
 48
0
 49
1
140
2.5
141
0.09
142
0
143
25.4
144
1
145
0
146
1
147
0.7
148
0
 71
    0
 72
    0
 73
    0
 74
    1
 75
    0
 76
    0
 77
    0
 78
    8
 79
    0
170
    0
171
    2
172
    0
173
    0
174
    0
175
    0
176
    0
177
    0
178
    0
179
    0
271
    2
272
    4
273
    2
274
    2
275
    0
276
    0
277
    2
278
   44
279
    0
280
    0
281
    0
282
    0
283
    1
284
    0
285
    0
286
    0
288
    0
289
    3
340
Standard
341

371
   15
372
   15
  0
ENDTAB
  0
TABLE
  2
BLOCK_RECORD
  5
1
330
0
100
AcDbSymbolTable
 70
    2
  0
BLOCK_RECORD
  5
1F
330
1
100
AcDbSymbolTableRecord
100
AcDbBlockTableRecord
  2
*Model_Space
 70
    0
280
    1
281
    0
  0
BLOCK_RECORD
  5
1E
330
1
100
AcDbSymbolTableRecord
100
AcDbBlockTableRecord
  2
*Paper_Space
 70
    0
280
    1
281
    0
  0
BLOCK_RECORD
  5
50
330
1
100
AcDbSymbolTableRecord
100
AcDbBlockTableRecord
  2
*U2
 70
    0
280
    1
281
    0
  0
ENDTAB
  0
ENDSEC
  0
SECTION
  2
BLOCKS
  0
BLOCK
  5
20
330
1F
100
AcDbEntity
  8
0
100
AcDbBlockBegin
  2
*Model_Space
 70
    0
 10
0
 20
0
 30
0
  3
*Model_Space
  1

  0
ENDBLK
  5
21
330
1F
100
AcDbEntity
  8
0
100
AcDbBlockEnd
  0
BLOCK
  5
1C
330
1B
100
AcDbEntity
  8
0
100
AcDbBlockBegin
  2
*Paper_Space
 70
    0
 10
0
 20
0
 30
0
  3
*Paper_Space
  1

  0
ENDBLK
  5
1D
330
1F
100
AcDbEntity
  8
0
100
AcDbBlockEnd
  0
BLOCK
  5
51
330
50
100
AcDbEntity
  8
0
100
AcDbBlockBegin
  2
*U2
 70
    0
 10
0
 20
0
  3
*U2
  1

  0
LINE
  5
53
100
AcDbEntity
  8
Border
  6
CONTINUOUS
 62
  256
370
   15
100
AcDbLine
 10
410
 20
10
 11
338
 21
10
  0
LINE
  5
54
100
AcDbEntity
  8
Border
  6
CONTINUOUS
 62
  256
370
   15
100
AcDbLine
 10
410
 20
22
 11
338
 21
22
  0
LINE
  5
55
100
AcDbEntity
  8
Border
  6
CONTINUOUS
 62
  256
370
   15
100
AcDbLine
 10
410
 20
34
 11
338
 21
34
  0
LINE
  5
56
100
AcDbEntity
  8
Border
  6
CONTINUOUS
 62
  256
370
   15
100
AcDbLine
 10
410
 20
46
 11
338
 21
46
  0
LINE
  5
57
100
AcDbEntity
  8
Border
  6
CONTINUOUS
 62
  256
370
   15
100
AcDbLine
 10
410
 20
10
 11
410
 21
46
  0
LINE
  5
58
100
AcDbEntity
  8
Border
  6
CONTINUOUS
 62
  256
370
   15
100
AcDbLine
 10
390
 20
10
 11
390
 21
34
  0
LINE
  5
59
100
AcDbEntity
  8
Border
  6
CONTINUOUS
 62
  256
370
   15
100
AcDbLine
 10
358
 20
10
 11
358
 21
34
  0
LINE
  5
5A
100
AcDbEntity
  8
Border
  6
CONTINUOUS
 62
  256
370
   15
100
AcDbLine
 10
338
 20
10
 11
338
 21
46
  0
CIRCLE
  5
5B
100
AcDbEntity
  8
Border
  6
CONTINUOUS
 62
  256
370
   40
100
AcDbCircle
 10
369.5333333333333
 20
26.23333333333333
 40
1.083333333333333
  0
CIRCLE
  5
5C
100
AcDbEntity
  8
Border
  6
CONTINUOUS
 62
  256
370
   40
100
AcDbCircle
 10
369.5333333333333
 20
26.23333333333333
 40
2.166666666666667
  0
LINE
  5
5D
100
AcDbEntity
  8
Border
  6
CONTINUOUS
 62
  256
370
   15
100
AcDbLine
 10
369.3166666666667
 20
26.23333333333333
 11
369.7499999999999
 21
26.23333333333333
  0
LINE
  5
5E
100
AcDbEntity
  8
Border
  6
CONTINUOUS
 62
  256
370
   15
100
AcDbLine
 10
368.8833333333333
 20
26.23333333333333
 11
366.9333333333333
 21
26.23333333333333
  0
LINE
  5
5F
100
AcDbEntity
  8
Border
  6
CONTINUOUS
 62
  256
370
   15
100
AcDbLine
 10
370.1833333333333
 20
26.23333333333333
 11
372.1333333333333
 21
26.23333333333333
  0
LINE
  5
60
100
AcDbEntity
  8
Border
  6
CONTINUOUS
 62
  256
370
   15
100
AcDbLine
 10
369.5333333333333
 20
26.01666666666667
 11
369.5333333333333
 21
26.45
  0
LINE
  5
61
100
AcDbEntity
  8
Border
  6
CONTINUOUS
 62
  256
370
   15
100
AcDbLine
 10
369.5333333333333
 20
25.58333333333333
 11
369.5333333333333
 21
23.63333333333333
  0
LINE
  5
62
100
AcDbEntity
  8
Border
  6
CONTINUOUS
 62
  256
370
   15
100
AcDbLine
 10
369.5333333333333
 20
26.88333333333333
 11
369.5333333333333
 21
28.83333333333333
  0
LINE
  5
63
100
AcDbEntity
  8
Border
  6
CONTINUOUS
 62
  256
370
   40
100
AcDbLine
 10
360.4333333333333
 20
27.31666666666666
 11
360.4333333333333
 21
25.15
  0
LINE
  5
64
100
AcDbEntity
  8
Border
  6
CONTINUOUS
 62
  256
370
   40
100
AcDbLine
 10
360.4333333333333
 20
27.31666666666666
 11
365.6333333333333
 21
28.4
  0
LINE
  5
65
100
AcDbEntity
  8
Border
  6
CONTINUOUS
 62
  256
370
   40
100
AcDbLine
 10
360.4333333333333
 20
25.15
 11
365.6333333333333
 21
24.06666666666666
  0
LINE
  5
66
100
AcDbEntity
  8
Border
  6
CONTINUOUS
 62
  256
370
   40
100
AcDbLine
 10
365.6333333333333
 20
28.4
 11
365.6333333333333
 21
24.06666666666666
  0
LINE
  5
67
100
AcDbEntity
  8
Border
  6
CONTINUOUS
 62
  256
370
   15
100
AcDbLine
 10
360
 20
26.23333333333333
 11
362.3833333333333
 21
26.23333333333333
  0
LINE
  5
68
100
AcDbEntity
  8
Border
  6
CONTINUOUS
 62
  256
370
   15
100
AcDbLine
 10
362.8166666666667
 20
26.23333333333333
 11
363.25
 21
26.23333333333333
  0
LINE
  5
69
100
AcDbEntity
  8
Border
  6
CONTINUOUS
 62
  256
370
   15
100
AcDbLine
 10
366.0666666666667
 20
26.23333333333333
 11
363.6833333333333
 21
26.23333333333333
  0
ENDBLK
  5
52
330
50
100
AcDbEntity
  8
0
100
AcDbBlockEnd
  0
ENDSEC
  0
SECTION
  2
ENTITIES
  0
LINE
  5
6A
100
AcDbEntity
  8
Geometries
  6
CONTINUOUS
 62
  256
370
   40
100
AcDbLine
 10
277.7511097346051
 20
106.4473619359322
 11
254.2198199272019
 21
111.1673619359322
  0
CIRCLE
  5
6B
100
AcDbEntity
  8
Geometries
  6
CONTINUOUS
 62
  256
370
   40
100
AcDbCircle
 10
215
 20
128.9164281942609
 40
3.25
  0
ARC
  5
6C
100
AcDbEntity
  8
Geometries
  6
CONTINUOUS
 62
  256
370
   40
100
AcDbCircle
 10
256.4769145862639
 20
215.767463569008
 40
10.99999999999999
100
AcDbArc
 50
78.6900675259799
 51
150.8608857501731
  0
LWPOLYLINE
  5
6D
100
AcDbEntity
  8
Geometries
  6
CONTINUOUS
 62
  256
370
   40
100
AcDbPolyline
 90
  212
 70
    0
 43
0
 10
215
 20
207.2455277003364
 10
215.2412329843913
 20
207.2458297378737
 10
215.4816598752904
 20
207.2467371864316
 10
215.721280767284
 20
207.2482520499287
 10
215.9600957549586
 20
207.2503763322837
 10
216.1981049329008
 20
207.2531120374151
 10
216.4353083956973
 20
207.2564611692417
 10
216.658219490588
 20
207.2601825713493
 10
216.8804144845235
 20
207.2644527583587
 10
217.1018934567845
 20
207.2692734099162
 10
217.3226564866516
 20
207.2746462056677
 10
217.5427036534055
 20
207.2805728252593
 10
217.7620350363269
 20
207.287054948337
 10
217.9806507146965
 20
207.2940942545469
 10
218.1985507677949
 20
207.3016924235351
 10
218.4157352749027
 20
207.3098511349475
 10
218.6322043153007
 20
207.3185720684304
 10
218.8441114973344
 20
207.3276861483405
 10
219.0553286884779
 20
207.3373457616978
 10
219.26585596384
 20
207.3475524997646
 10
219.4756933985296
 20
207.3583079538033
 10
219.6886373684096
 20
207.3698243780333
 10
219.9008663416009
 20
207.3819129822353
 10
220.112380397384
 20
207.3945754460555
 10
220.3231796150398
 20
207.4078134491396
 10
220.5332640738488
 20
207.421628671134
 10
220.7389013736944
 20
207.4357606676476
 10
220.9438493654577
 20
207.4504526636291
 10
221.1481081242477
 20
207.4657062503405
 10
221.3516777251731
 20
207.4815230190443
 10
221.558691487652
 20
207.4982447699485
 10
221.7649878343522
 20
207.5155562719893
 10
221.9705668450754
 20
207.5334592158548
 10
222.1754285996237
 20
207.5519552922334
 10
222.3795731777988
 20
207.5710461918134
 10
222.5830006594027
 20
207.5907336052829
 10
222.7857111242372
 20
207.6110192233302
 10
222.9872647193012
 20
207.631858514022
 10
223.1881045817177
 20
207.6532967647569
 10
223.3882307907674
 20
207.6753356551808
 10
223.5876434257308
 20
207.6979768649399
 10
223.7863425658889
 20
207.7212220736802
 10
223.9807990867296
 20
207.7446417313368
 10
224.1745675187881
 20
207.7686472206407
 10
224.3676479371732
 20
207.7932401328542
 10
224.5600404169939
 20
207.8184220592394
 10
224.755650210735
 20
207.844726721832
 10
224.9505438582726
 20
207.8716480328743
 10
225.1447214394084
 20
207.8991876830545
 10
225.3381830339445
 20
207.9273473630609
 10
225.5309287216826
 20
207.9561287635817
 10
225.7229585824246
 20
207.9855335753051
 10
225.9142726959723
 20
208.0155634889195
 10
226.1048711421277
 20
208.0462201951131
 10
226.2947540006926
 20
208.077505384574
 10
226.4839213514689
 20
208.1094207479907
 10
226.6723732742584
 20
208.1419679760513
 10
226.8601098488631
 20
208.1751487594441
 10
227.0471311550847
 20
208.2089647888573
 10
227.2334372727252
 20
208.2434177549792
 10
227.437548054562
 20
208.2820536974483
 10
227.6407936609922
 20
208.3214646293737
 10
227.843174198232
 20
208.3616528010616
 10
228.0446897724977
 20
208.4026204628179
 10
228.2453404900057
 20
208.4443698649488
 10
228.4266042572758
 20
208.4829191307491
 10
228.6071565491149
 20
208.5221151781477
 10
228.7869974448037
 20
208.561959686791
 10
228.9661270236228
 20
208.6024543363248
 10
229.144545364853
 20
208.6436008063952
 10
229.3190854410049
 20
208.6846486082467
 10
229.492939605696
 20
208.7263283706374
 10
229.6661079340351
 20
208.7686416848296
 10
229.8385905011311
 20
208.8115901420856
 10
230.0138863018257
 20
208.8560714684187
 10
230.1884682234153
 20
208.9012174741177
 10
230.3623363457017
 20
208.9470298498709
 10
230.5354907484867
 20
208.9935102863665
 10
230.7079315115724
 20
209.0406604742928
 10
230.8796587147604
 20
209.088482104338
 10
231.0506724378528
 20
209.1369768671904
 10
231.2209727606513
 20
209.1861464535382
 10
231.3905597629579
 20
209.2359925540697
 10
231.5594335245744
 20
209.2865168594731
 10
231.7275941253026
 20
209.3377210604368
 10
231.8950416449445
 20
209.3896068476488
 10
232.0617761633019
 20
209.4421759117976
 10
232.2277977601767
 20
209.4954299435713
 10
232.40959818767
 20
209.5548025339656
 10
232.5905361829459
 20
209.6150082312249
 10
232.7706118522207
 20
209.6760492856554
 10
232.9498253017106
 20
209.737927947563
 10
233.128176637632
 20
209.8006464672538
 10
233.2895661900402
 20
209.8583939991157
 10
233.4502434194798
 20
209.9168391787646
 10
233.6102084057527
 20
209.9759836968884
 10
233.7694612286607
 20
210.0358292441757
 10
233.9280019680057
 20
210.0963775113146
 10
234.0858307035895
 20
210.1576301889932
 10
234.2429475152141
 20
210.2195889679
 10
234.3863459219371
 20
210.2770062495126
 10
234.5291462433012
 20
210.3350195752043
 10
234.6713485407741
 20
210.3936302472356
 10
234.8129528758236
 20
210.4528395678667
 10
234.9539593099173
 20
210.5126488393583
 10
235.0943679045232
 20
210.5730593639707
 10
235.2341787211089
 20
210.6340724439645
 10
235.3733918211422
 20
210.6956893816
 10
235.5120072660909
 20
210.7579114791378
 10
235.6500251174227
 20
210.8207400388382
 10
235.7874454366053
 20
210.8841763629618
 10
235.9242682851066
 20
210.9482217537689
 10
236.0847568352651
 20
211.0244875132936
 10
236.244415666365
 20
211.1016032258601
 10
236.4032448790335
 20
211.1795710233624
 10
236.5612445738975
 20
211.2583930376943
 10
236.7064363503196
 20
211.3319537363535
 10
236.8509206820545
 20
211.4062466122458
 10
236.9946976483828
 20
211.4812733450173
 10
237.1377673285853
 20
211.5570356143142
 10
237.2801298019426
 20
211.6335350997825
 10
237.4192617884252
 20
211.7093877350524
 10
237.5577117515209
 20
211.7859547038829
 10
237.6954797663387
 20
211.8632375975363
 10
237.8325659079873
 20
211.9412380072748
 10
237.9717469151113
 20
212.0215715438579
 10
238.1102180915204
 20
212.1026555293002
 10
238.2479795170166
 20
212.18449165429
 10
238.3850312714017
 20
212.2670816095155
 10
238.5213734344776
 20
212.350427085665
 10
238.6570060860462
 20
212.4345297734267
 10
238.7919293059093
 20
212.5193913634889
 10
238.9261431738688
 20
212.6050135465399
 10
239.0596477697265
 20
212.6913980132679
 10
239.1924431732843
 20
212.7785464543611
 10
239.3245294643442
 20
212.8664605605078
 10
239.4559067227079
 20
212.9551420223962
 10
239.5865750281773
 20
213.0445925307147
 10
239.7165344605544
 20
213.1348137761514
 10
239.835041283069
 20
213.2181950995839
 10
239.9529525838002
 20
213.3022267791976
 10
240.070268424216
 20
213.3869101172529
 10
240.1869888657839
 20
213.4722464160103
 10
240.3031139699717
 20
213.5582369777304
 10
240.4186437982474
 20
213.6448831046734
 10
240.5439975006943
 20
213.7401553519049
 10
240.6686429285629
 20
213.8362110164165
 10
240.7925801616549
 20
213.9330517888966
 10
240.9158092797723
 20
214.0306793600333
 10
241.0383303627169
 20
214.1290954205149
 10
241.1601434902906
 20
214.2283016610297
 10
241.2812487422952
 20
214.3282997722658
 10
241.3916401090984
 20
214.4206617879645
 10
241.5014367923149
 20
214.5136919179414
 10
241.6106388534125
 20
214.6073914644571
 10
241.7192463538591
 20
214.701761729772
 10
241.8272593551223
 20
214.7968040161465
 10
241.9346779186699
 20
214.8925196258411
 10
242.0415021059698
 20
214.9889098611163
 10
242.1477319784895
 20
215.0859760242325
 10
242.253367597697
 20
215.1837194174502
 10
242.3584090250599
 20
215.2821413430298
 10
242.462856322046
 20
215.3812431032318
 10
242.5667095501232
 20
215.4810260003166
 10
242.6640842446263
 20
215.5757320533946
 10
242.7609309301578
 20
215.6710458724733
 10
242.8572496582388
 20
215.7669685490823
 10
242.9530404803904
 20
215.8635011747513
 10
243.0483034481337
 20
215.96064484101
 10
243.157866440012
 20
216.0738064012895
 10
243.2667229386036
 20
216.1877891174261
 10
243.3748730237103
 20
216.3025946801083
 10
243.4823167751342
 20
216.4182247800241
 10
243.5890542726769
 20
216.5346811078618
 10
243.6950855961404
 20
216.6519653543098
 10
243.8004108253266
 20
216.7700792100563
 10
243.896338736028
 20
216.879080477181
 10
243.9916734599227
 20
216.9887815694717
 10
244.0864150584783
 20
217.0991837891888
 10
244.1805635931627
 20
217.2102884385927
 10
244.2741191254436
 20
217.322096819944
 10
244.3670817167887
 20
217.434610235503
 10
244.4594514286659
 20
217.5478299875303
 10
244.5512283225428
 20
217.6617573782863
 10
244.6424124598872
 20
217.7763937100314
 10
244.733003902167
 20
217.891740285026
 10
244.8230027108497
 20
218.0077984055307
 10
244.9124089474033
 20
218.1245693738059
 10
244.9961635636838
 20
218.2353217957336
 10
245.0793915015994
 20
218.3467101739939
 10
245.1620928126712
 20
218.4587356001166
 10
245.2442675484204
 20
218.5713991656313
 10
245.3259157603679
 20
218.6847019620675
 10
245.4119370496463
 20
218.8055713283134
 10
245.4973661795077
 20
218.9271622860786
 10
245.5822032114196
 20
219.0494761376234
 10
245.66644820685
 20
219.1725141852084
 10
245.7501012272665
 20
219.2962777310941
 10
245.833162334137
 20
219.4207680775407
 10
245.9109350027818
 20
219.5388115499329
 10
245.9881815785287
 20
219.6575033824039
 10
246.0649021128987
 20
219.7768446664833
 10
246.1410966574131
 20
219.8968364937007
 10
246.2167652635928
 20
220.0174799555859
 10
246.3005958453543
 20
220.1528974937514
 10
246.383771446009
 20
220.2891295951823
 10
246.4662921371811
 20
220.4261777773185
 10
246.5481579904951
 20
220.5640435575998
 10
246.6293690775755
 20
220.7027284534663
 10
246.7099254700465
 20
220.8422339823579
 10
246.7898272395327
 20
220.9825616617145
 10
246.8690744576584
 20
221.123713008976
  0
ARC
  5
6E
100
AcDbEntity
  8
Geometries
  6
CONTINUOUS
 62
  256
370
   40
100
AcDbCircle
 10
273.6670078428302
 20
140.9554027080752
 40
10.99999999999999
100
AcDbArc
 50
14.75389783100379
 51
70.93703880187944
  0
LWPOLYLINE
  5
6F
100
AcDbEntity
  8
Geometries
  6
CONTINUOUS
 62
  256
370
   40
100
AcDbPolyline
 90
  185
 70
    0
 43
0
 10
258.3290995060755
 20
163.9164281942608
 10
258.3338928280268
 20
163.812360652942
 10
258.3394919219735
 20
163.7090102156087
 10
258.3458928526875
 20
163.6063737563431
 10
258.3530916849408
 20
163.5044481492274
 10
258.3610844835051
 20
163.4032302683437
 10
258.3698673131526
 20
163.3027169877743
 10
258.379436238655
 20
163.2029051816013
 10
258.3888949561106
 20
163.1120245819612
 10
258.3990078746318
 20
163.0217283812762
 10
258.4097719630914
 20
162.9320141717935
 10
258.4211841903615
 20
162.8428795457605
 10
258.4332415253145
 20
162.7543220954245
 10
258.4459409368228
 20
162.6663394130328
 10
258.4592793937588
 20
162.5789290908328
 10
258.4732538649948
 20
162.4920887210717
 10
258.4878613194032
 20
162.4058158959969
 10
258.5030987258563
 20
162.3201082078558
 10
258.5189630532266
 20
162.2349632488956
 10
258.5354512703863
 20
162.1503786113637
 10
258.5556806393935
 20
162.0514056404259
 10
258.5767674379144
 20
161.9532036869986
 10
258.5987067037753
 20
161.8557688094177
 10
258.6214934748028
 20
161.7590970660192
 10
258.6455601805606
 20
161.6614476532698
 10
258.6704951079763
 20
161.5645811304157
 10
258.6962930192616
 20
161.4684933368602
 10
258.7229486766277
 20
161.3731801120067
 10
258.7504568422862
 20
161.2786372952585
 10
258.7782985318938
 20
161.1865286123926
 10
258.8069525403465
 20
161.0951551137281
 10
258.8364139054704
 20
161.004512857601
 10
258.8666776650922
 20
160.9145979023474
 10
258.8983810272451
 20
160.8235935738622
 10
258.930909429883
 20
160.7333382427774
 10
258.9642576007836
 20
160.6438277211442
 10
258.9984202677244
 20
160.5550578210135
 10
259.0333921584831
 20
160.4670243544366
 10
259.0691680008372
 20
160.3797231334645
 10
259.1057425225643
 20
160.2931499701484
 10
259.1430280615905
 20
160.2074871991717
 10
259.1810983116154
 20
160.1225409820471
 10
259.2199480348503
 20
160.038307158178
 10
259.2595719935067
 20
159.9547815669678
 10
259.2999649497961
 20
159.8719600478198
 10
259.3403800574062
 20
159.7912987839071
 10
259.3815269290956
 20
159.711308716144
 10
259.4234006026909
 20
159.6319859028665
 10
259.4659961160185
 20
159.5533264024107
 10
259.5101998628172
 20
159.4737412716875
 10
259.5551447738353
 20
159.3948385119052
 10
259.6008255768505
 20
159.3166139351148
 10
259.6472369996403
 20
159.2390633533674
 10
259.6943737699822
 20
159.1621825787142
 10
259.742230615654
 20
159.0859674232062
 10
259.7908022644331
 20
159.0104136988946
 10
259.8400834440972
 20
158.9355172178304
 10
259.8900688824238
 20
158.8612737920649
 10
259.9407533071906
 20
158.7876792336491
 10
259.9921314461751
 20
158.7147293546341
 10
260.0441980271549
 20
158.642419967071
 10
260.0969477779076
 20
158.5707468830109
 10
260.1503754262109
 20
158.4997059145051
 10
260.2099225186178
 20
158.4222859442966
 10
260.2702764703437
 20
158.3456201923306
 10
260.3314302640605
 20
158.2697030844471
 10
260.3933768824402
 20
158.194529046486
 10
260.4561093081548
 20
158.1200925042874
 10
260.5171982892472
 20
158.0491692108679
 10
260.5790018732228
 20
157.9789184238596
 10
260.6415138110851
 20
157.9093351794208
 10
260.7047278538378
 20
157.8404145137097
 10
260.7686377524844
 20
157.7721514628846
 10
260.8332372580285
 20
157.7045410631038
 10
260.8947713723293
 20
157.6413874299437
 10
260.9569077400695
 20
157.5788054168919
 10
261.0196411234605
 20
157.5167908633518
 10
261.0829662847138
 20
157.4553396087268
 10
261.146877986041
 20
157.3944474924202
 10
261.2188941975276
 20
157.3271426928956
 10
261.2916272065606
 20
157.2605233981429
 10
261.3650697315885
 20
157.1945838241178
 10
261.4392144910595
 20
157.1293181867767
 10
261.5140542034221
 20
157.0647207020754
 10
261.5895815871245
 20
157.0007855859702
 10
261.6657893606152
 20
156.937507054417
 10
261.7426702423426
 20
156.8748793233719
 10
261.8313489805752
 20
156.8040942524227
 10
261.9208865007332
 20
156.7341430180491
 10
262.0112719335618
 20
156.665016986343
 10
262.1024944098061
 20
156.5967075233963
 10
262.1945430602111
 20
156.5292059953009
 10
262.2874070155219
 20
156.4625037681485
 10
262.3810754064835
 20
156.3965922080311
 10
262.4676354894654
 20
156.3368604829868
 10
262.554854016561
 20
156.2777792326927
 10
262.6427226156766
 20
156.2193418068411
 10
262.731232914718
 20
156.1615415551242
 10
262.8203765415915
 20
156.1043718272344
 10
262.9101451242032
 20
156.0478259728639
 10
263.008777408807
 20
155.9868432969623
 10
263.1081326096498
 20
155.9265865337845
 10
263.2081998574766
 20
155.8670470494223
 10
263.3089682830327
 20
155.8082162099677
 10
263.410427017063
 20
155.7500853815124
 10
263.5125651903126
 20
155.6926459301483
 10
263.6153719335267
 20
155.6358892219672
 10
263.7292185769152
 20
155.5742351067751
 10
263.843846571184
 20
155.5133851720739
 10
263.9592414493546
 20
155.4533279261318
 10
264.0753887444489
 20
155.3940518772171
 10
264.1922739894884
 20
155.335545533598
 10
264.309882717495
 20
155.2777974035428
 10
264.4282004614902
 20
155.2207959953198
 10
264.5472127544959
 20
155.1645298171972
 10
264.6669051295337
 20
155.1089873774432
 10
264.7872631196253
 20
155.0541571843261
 10
264.9061057541413
 20
155.0009882647942
 10
265.0255627833623
 20
154.9484844096303
 10
265.1456205015691
 20
154.8966347318034
 10
265.2662652030432
 20
154.8454283442821
 10
265.3916670442731
 20
154.7931241105494
 10
265.5176671505061
 20
154.7414845293084
 10
265.6442503509562
 20
154.6904975497632
 10
265.7714014748375
 20
154.6401511211179
 10
265.8991053513639
 20
154.5904331925766
 10
266.0250521574781
 20
154.5422031895677
 10
266.1515031450303
 20
154.4945563997148
 10
266.2784439415287
 20
154.4474814063409
 10
266.4058601744816
 20
154.4009667927688
 10
266.5581461367689
 20
154.3463070759252
 10
266.7110612853564
 20
154.2924061060237
 10
266.8645813712228
 20
154.2392446210428
 10
267.0186821453471
 20
154.1868033589613
 10
267.1733393587082
 20
154.1350630577576
 10
267.3285287622849
 20
154.0840044554105
 10
267.5154243950401
 20
154.0236068541583
 10
267.7030095608069
 20
153.9641298771756
 10
267.8912423572771
 20
153.9055402396895
 10
268.0800808821422
 20
153.8478046569269
 10
268.2694832330936
 20
153.7908898441148
 10
268.4560116688756
 20
153.7357580774745
 10
268.643003857342
 20
153.6813543893406
 10
268.8304201011043
 20
153.6276472464012
 10
269.0182207027741
 20
153.5746051153442
 10
269.2626261502946
 20
153.5066601145077
 10
269.5075259568454
 20
153.4397144832403
 10
269.7528331683872
 20
153.3736991502767
 10
269.9984608308806
 20
153.3085450443518
 10
270.2443219902863
 20
153.2441830942004
 10
270.490329692565
 20
153.1805442285572
 10
270.7363969836773
 20
153.1175593761571
 10
271.0746770792513
 20
153.031896207127
 10
271.4126793909474
 20
152.9471593857153
 10
271.7501778722296
 20
152.8631693536133
 10
272.086946476562
 20
152.7797465525126
 10
272.3312815903836
 20
152.7193291741031
 10
272.5750241377437
 20
152.6590477744477
 10
272.818087164603
 20
152.5988332822812
 10
273.060383716922
 20
152.5386166263383
 10
273.3018268406616
 20
152.4783287353538
 10
273.5423295817822
 20
152.4179005380627
 10
273.7818049862447
 20
152.3572629631996
 10
273.9691868807813
 20
152.3094272751102
 10
274.1558386935876
 20
152.2613861838924
 10
274.3417182468843
 20
152.2131061859553
 10
274.526783362892
 20
152.1645537777076
 10
274.7109918638316
 20
152.1156954555583
 10
274.8943015719237
 20
152.0664977159163
 10
275.0766703093889
 20
152.0169270551905
 10
275.2544380943272
 20
151.9679537111608
 10
275.4312219661479
 20
151.9185585035613
 10
275.6069822274624
 20
151.8687098990803
 10
275.7816791808824
 20
151.8183763644057
 10
275.9181692700933
 20
151.7784678523153
 10
276.0539591668212
 20
151.7382252075659
 10
276.1890296155179
 20
151.6976331346625
 10
276.3233613606355
 20
151.6566763381101
 10
276.4596531151116
 20
151.6144918497883
 10
276.5951351989862
 20
151.5718954218664
 10
276.7297871535767
 20
151.5288708031494
 10
276.863588520201
 20
151.4854017424419
 10
276.9965188401767
 20
151.4414719885487
 10
277.1285576548216
 20
151.3970652902745
 10
277.2596845054533
 20
151.3521653964241
  0
CIRCLE
  5
70
100
AcDbEntity
  8
Geometries
  6
CONTINUOUS
 62
  256
370
   40
100
AcDbCircle
 10
245.3108891324554
 20
181.4164281942608
 40
3.25
  0
LINE
  5
71
100
AcDbEntity
  8
Geometries
  6
CONTINUOUS
 62
  256
370
   40
100
AcDbLine
 10
284.304322620035
 20
143.7567478011794
 11
290.5517578451433
 21
120.0338815240962
  0
CIRCLE
  5
72
100
AcDbEntity
  8
Geometries
  6
CONTINUOUS
 62
  256
370
   40
100
AcDbCircle
 10
149.8030892561418
 20
211.0234643374891
 40
6.400000000000007
  0
CIRCLE
  5
73
100
AcDbEntity
  8
Geometries
  6
CONTINUOUS
 62
  256
370
   40
100
AcDbCircle
 10
173.6168467394647
 20
121.9525364309921
 40
6.4
  0
LINE
  5
74
100
AcDbEntity
  8
Geometries
  6
CONTINUOUS
 62
  256
370
   40
100
AcDbLine
 10
258.6341920727839
 20
226.5538510016081
 11
282.3541882303783
 21
221.8098517700892
  0
CIRCLE
  5
75
100
AcDbEntity
  8
Geometries
  6
CONTINUOUS
 62
  256
370
   40
100
AcDbCircle
 10
279.9144430679385
 20
117.232536430992
 40
6.400000000000007
  0
ARC
  5
76
100
AcDbEntity
  8
Geometries
  6
CONTINUOUS
 62
  256
370
   40
100
AcDbCircle
 10
150.0855569320615
 20
117.2325364309921
 40
10.99999999999998
100
AcDbArc
 50
165.2461021689962
 51
281.342102092134
  0
LWPOLYLINE
  5
77
100
AcDbEntity
  8
Geometries
  6
CONTINUOUS
 62
  256
370
   40
100
AcDbPolyline
 90
  204
 70
    0
 43
0
 10
183.1309255423416
 20
221.123713008976
 10
183.2054307297783
 20
220.9909521654236
 10
183.2805147587723
 20
220.858919803558
 10
183.3561776888885
 20
220.7276146614362
 10
183.4324195796915
 20
220.5970354771154
 10
183.509240490746
 20
220.4671809886526
 10
183.5866404816169
 20
220.3380499341048
 10
183.6646196118689
 20
220.2096410515291
 10
183.7510656322217
 20
220.0692238831947
 10
183.8382125625796
 20
219.9296773363496
 10
183.9260604822232
 20
219.7909997313476
 10
184.0146094704332
 20
219.6531893885427
 10
184.1038596064904
 20
219.5162446282889
 10
184.1938109696753
 20
219.3801637709401
 10
184.2844636392686
 20
219.2449451368502
 10
184.375817694551
 20
219.1105870463732
 10
184.4678732148032
 20
218.9770878198631
 10
184.5606302793058
 20
218.8444457776737
 10
184.6524139091068
 20
218.7150050788838
 10
184.7448744032966
 20
218.5863880125693
 10
184.838011836984
 20
218.4585929874678
 10
184.9318262852778
 20
218.3316184123171
 10
185.0280421189952
 20
218.2031765251654
 10
185.1249599669841
 20
218.0755818644329
 10
185.2225799085253
 20
217.9488327504735
 10
185.3209020228992
 20
217.8229275036411
 10
185.4199263893867
 20
217.6978644442897
 10
185.5178660940812
 20
217.5758527918288
 10
185.6164833459723
 20
217.4546503058227
 10
185.7157782201691
 20
217.3342553950091
 10
185.8157507917803
 20
217.2146664681257
 10
185.9184622822873
 20
217.0934661241847
 10
186.0218795715918
 20
216.9731016496012
 10
186.1260027394955
 20
216.8535713536871
 10
186.2308318658005
 20
216.734873545754
 10
186.3363670303085
 20
216.6170065351138
 10
186.4426083128214
 20
216.4999686310782
 10
186.5495557931411
 20
216.3837581429588
 10
186.6569739012816
 20
216.2686242310409
 10
186.7650952877349
 20
216.1543107654711
 10
186.8739200317816
 20
216.0408160666034
 10
186.9834482127025
 20
215.9281384547917
 10
187.0936799097781
 20
215.8162762503899
 10
187.2026280445419
 20
215.7072036563083
 10
187.3122549458023
 20
215.5989143965021
 10
187.4225606886683
 20
215.4914068797089
 10
187.5335453482489
 20
215.3846795146664
 10
187.6474949200937
 20
215.2765765850802
 10
187.7621515603113
 20
215.1692826275385
 10
187.8775153487033
 20
215.0627959513529
 10
187.9935863650716
 20
214.9571148658354
 10
188.1103646892182
 20
214.8522376802976
 10
188.2278504009449
 20
214.7481627040513
 10
188.3460435800536
 20
214.6448882464081
 10
188.464944306346
 20
214.54241261668
 10
188.5845526596242
 20
214.4407341241786
 10
188.7048687196899
 20
214.3398510782156
 10
188.825892566345
 20
214.2397617881028
 10
188.9476242793914
 20
214.1404645631521
 10
189.0700639386311
 20
214.041957712675
 10
189.1932116238657
 20
213.9442395459834
 10
189.3067190513231
 20
213.8553559526805
 10
189.4208215458137
 20
213.7671323499281
 10
189.5355191688053
 20
213.6795674354656
 10
189.6508119817656
 20
213.5926599070326
 10
189.7667000461624
 20
213.5064084623686
 10
189.8831834234634
 20
213.4208117992132
 10
190.0106557203084
 20
213.3283801295004
 10
190.1388335526827
 20
213.2367210845802
 10
190.267716999867
 20
213.1458329848066
 10
190.3973061411419
 20
213.0557141505335
 10
190.5276010557881
 20
212.966362902115
 10
190.6562563334953
 20
212.8793527344143
 10
190.7855925550207
 20
212.7930797720969
 10
190.9156097954731
 20
212.7075424239007
 10
191.0463081299614
 20
212.6227390985632
 10
191.1803759410378
 20
212.5369600874565
 10
191.3151530875852
 20
212.4519420174782
 10
191.4506396494056
 20
212.3676831979398
 10
191.586835706301
 20
212.284181938153
 10
191.7237413380731
 20
212.2014365474298
 10
191.8613566245238
 20
212.1194453350818
 10
191.9996816454549
 20
212.0382066104208
 10
192.1387164806684
 20
211.9577186827585
 10
192.2784612099662
 20
211.8779798614066
 10
192.41891591315
 20
211.7989884556769
 10
192.5600806700218
 20
211.7207427748813
 10
192.7019555603835
 20
211.6432411283313
 10
192.8445406640367
 20
211.5664818253388
 10
192.9878360607836
 20
211.4904631752154
 10
193.1198142153769
 20
211.4214286116078
 10
193.252389341996
 20
211.353013679239
 10
193.3855615021086
 20
211.2852170758486
 10
193.5193307571824
 20
211.218037499176
 10
193.6536971686851
 20
211.1514736469609
 10
193.7886607980847
 20
211.0855242169429
 10
193.9365750451102
 20
211.0142785999433
 10
194.0852001837433
 20
210.9437609556509
 10
194.2345362937858
 20
210.8739695933776
 10
194.3845834550397
 20
210.8049028224352
 10
194.5353417473067
 20
210.7365589521353
 10
194.6868112503887
 20
210.6689362917897
 10
194.8389920440877
 20
210.6020331507101
 10
194.9791160221837
 20
210.5413359051093
 10
195.1198378105021
 20
210.4812405326502
 10
195.2611574705107
 20
210.4217457310723
 10
195.4030750636772
 20
210.3628501981154
 10
195.5455906514695
 20
210.3045526315187
 10
195.6887042953552
 20
210.246851729022
 10
195.861230188608
 20
210.178396409055
 10
196.0346174773653
 20
210.1107961598309
 10
196.2088662678433
 20
210.0440487310434
 10
196.3839766662583
 20
209.9781518723866
 10
196.5599487788265
 20
209.9131033335543
 10
196.7336174049294
 20
209.850039930649
 10
196.9081174475452
 20
209.7877905183925
 10
197.0834490073012
 20
209.7263529648907
 10
197.2596121848244
 20
209.66572513825
 10
197.4230553774257
 20
209.6104467094522
 10
197.5872081363001
 20
209.5558555098123
 10
197.7520705407282
 20
209.5019498596844
 10
197.9176426699908
 20
209.4487280794222
 10
198.0839246033685
 20
209.3961884893799
 10
198.2479281978928
 20
209.3452495071459
 10
198.4126166243092
 20
209.2949653572739
 10
198.5779899577266
 20
209.2453344485016
 10
198.7440482732539
 20
209.1963551895667
 10
198.9142017055416
 20
209.1470464364602
 10
199.0850685216907
 20
209.0984128549887
 10
199.256648801503
 20
209.0504527544639
 10
199.4289426247804
 20
209.0031644441974
 10
199.6019500713248
 20
208.9565462335011
 10
199.775671220938
 20
208.9105964316868
 10
199.9501061534219
 20
208.8653133480661
 10
200.1252549485784
 20
208.8206952919507
 10
200.3011176862093
 20
208.7767405726526
 10
200.4776944461166
 20
208.7334474994833
 10
200.654985308102
 20
208.6908143817547
 10
200.8329903519675
 20
208.6488395287785
 10
201.0117096575148
 20
208.6075212498664
 10
201.191143304546
 20
208.5668578543303
 10
201.3893454759376
 20
208.5228824917032
 10
201.5884122033011
 20
208.4796952419221
 10
201.7883435928528
 20
208.4372938546809
 10
201.989139750809
 20
208.3956760796736
 10
202.190800783386
 20
208.3548396665941
 10
202.3748795952322
 20
208.3183918024751
 10
202.5596733470763
 20
208.2825861415701
 10
202.74518211872
 20
208.2474209931908
 10
202.9314059899653
 20
208.212894666649
 10
203.1183450406139
 20
208.1790054712565
 10
203.3059993504678
 20
208.145751716325
 10
203.4943689993289
 20
208.1131317111662
 10
203.7024019248728
 20
208.0779796686426
 10
203.9113006133919
 20
208.0435901673052
 10
204.1210651711025
 20
208.0099609568479
 10
204.3316957042207
 20
207.9770897869646
 10
204.5431923189631
 20
207.9449744073493
 10
204.7555551215458
 20
207.9136125676959
 10
204.968784218185
 20
207.8830020176983
 10
205.1828797150972
 20
207.8531405070506
 10
205.3978417184986
 20
207.8240257854466
 10
205.6136703346054
 20
207.7956556025802
 10
205.8264885090913
 20
207.7685145672155
 10
206.0401428252561
 20
207.7420874147865
 10
206.2546333837269
 20
207.7163720133995
 10
206.4699602851309
 20
207.6913662311604
 10
206.6700165689126
 20
207.6688509400235
 10
206.8707895739838
 20
207.6469401135235
 10
207.0722793801463
 20
207.6256320609723
 10
207.2744860672021
 20
207.6049250916815
 10
207.477409714953
 20
207.5848175149628
 10
207.6810504032008
 20
207.5653076401281
 10
207.8854082117475
 20
207.5463937764891
 10
208.1110301703375
 20
207.5262749015808
 10
208.3375200472656
 20
207.5068729041804
 10
208.5648779487482
 20
207.4881855339819
 10
208.7931039810014
 20
207.4702105406791
 10
209.0221982502417
 20
207.4529456739662
 10
209.2521608626852
 20
207.4363886835368
 10
209.4829919245483
 20
207.4205373190851
 10
209.7146915420473
 20
207.405389330305
 10
209.9472598213983
 20
207.3909424668903
 10
210.1806968688178
 20
207.377194478535
 10
210.4108111363167
 20
207.3643700792406
 10
210.6417636245673
 20
207.3522155154882
 10
210.873554434197
 20
207.340728655384
 10
211.106183665833
 20
207.3299073670341
 10
211.34390405052
 20
207.3195709580461
 10
211.5824938329862
 20
207.3099200830173
 10
211.8219531194481
 20
207.3009524916417
 10
212.0622820161218
 20
207.2926659336131
 10
212.3034806292236
 20
207.2850581586254
 10
212.5412187861259
 20
207.2782447689886
 10
212.7797960785722
 20
207.2720818340405
 10
213.0192126071897
 20
207.2665672218874
 10
213.2594684726054
 20
207.2616988006353
 10
213.5054928289531
 20
207.2573949181202
 10
213.7523913420127
 20
207.2537593858813
 10
214.0001641186989
 20
207.2507899388189
 10
214.2488112659261
 20
207.248484311833
 10
214.498332890609
 20
207.2468402398239
 10
214.7487290996621
 20
207.2458554576916
 10
215
 20
207.2455277003364
  0
LINE
  5
78
100
AcDbEntity
  8
Geometries
  6
CONTINUOUS
 62
  256
370
   40
100
AcDbLine
 10
147.6458117696218
 20
221.8098517700892
 11
171.3658079272161
 21
226.5538510016081
  0
CIRCLE
  5
79
100
AcDbEntity
  8
Geometries
  6
CONTINUOUS
 62
  256
370
   40
100
AcDbCircle
 10
245.3108891324553
 20
146.4164281942608
 40
3.25
  0
ARC
  5
7A
100
AcDbEntity
  8
Geometries
  6
CONTINUOUS
 62
  256
370
   40
100
AcDbCircle
 10
279.9144430679385
 20
117.232536430992
 40
11
100
AcDbArc
 50
258.657897907866
 51
14.75389783100364
  0
LWPOLYLINE
  5
7B
100
AcDbEntity
  8
Geometries
  6
CONTINUOUS
 62
  256
370
   40
100
AcDbPolyline
 90
  271
 70
    0
 43
0
 10
171.6709004939245
 20
163.9164281942609
 10
171.6708058622099
 20
164.1664298811229
 10
171.6705016814475
 20
164.417511983093
 10
171.6699575232094
 20
164.6696482010705
 10
171.6691429590676
 20
164.9228122359546
 10
171.6680275605943
 20
165.1769777886443
 10
171.6666098137839
 20
165.4275540753873
 10
171.6648437021254
 20
165.6790461473417
 10
171.6627003983498
 20
165.9314290892784
 10
171.6601510751879
 20
166.1846779859679
 10
171.6571012740318
 20
166.4439620135479
 10
171.6535680677986
 20
166.7040952870881
 10
171.64952082802
 20
166.9650513345945
 10
171.6449289262281
 20
167.2268036840725
 10
171.6397617339549
 20
167.4893258635281
 10
171.6339886227321
 20
167.7525914009667
 10
171.6275789640918
 20
168.0165738243942
 10
171.6205021295658
 20
168.2812466618162
 10
171.6127274906861
 20
168.5465834412385
 10
171.6042244189846
 20
168.8125576906666
 10
171.5949622859932
 20
169.0791429381064
 10
171.584910463244
 20
169.3463127115634
 10
171.5740383222686
 20
169.6140405390435
 10
171.5623152345993
 20
169.8822999485522
 10
171.5507953790066
 20
170.1286487783727
 10
171.5385111636764
 20
170.3754016507542
 10
171.5254389968894
 20
170.6225381755206
 10
171.5115552869261
 20
170.8700379624958
 10
171.4968364420673
 20
171.1178806215035
 10
171.4812588705936
 20
171.3660457623675
 10
171.4655666322466
 20
171.6032127643514
 10
171.4490499446706
 20
171.8406372851236
 10
171.4316882891846
 20
172.0783015905163
 10
171.4134611471082
 20
172.3161879463614
 10
171.3943479997603
 20
172.5542786184908
 10
171.3743283284603
 20
172.7925558727365
 10
171.3533816145274
 20
173.0310019749303
 10
171.331487339281
 20
173.2695991909043
 10
171.3075118040107
 20
173.5197009350981
 10
171.2824502037392
 20
173.7699286739961
 10
171.2562789467472
 20
174.0202620174222
 10
171.2289744413154
 20
174.2706805752001
 10
171.2005130957244
 20
174.5211639571537
 10
171.1708713182549
 20
174.7716917731068
 10
171.1445066700744
 20
174.9864498107927
 10
171.1172425765352
 20
175.2012126728677
 10
171.0890641810444
 20
175.4159675188709
 10
171.0599566270091
 20
175.6307015083414
 10
171.0299050578362
 20
175.8454018008187
 10
170.9988946169329
 20
176.0600555558418
 10
170.9669104477063
 20
176.2746499329498
 10
170.9367235440576
 20
176.4712983167949
 10
170.9056945111128
 20
176.6678761267193
 10
170.8738119055124
 20
176.8643734722987
 10
170.841064283897
 20
177.0607804631086
 10
170.807440202907
 20
177.2570872087247
 10
170.772928219183
 20
177.4532838187227
 10
170.7343382452001
 20
177.6667127369983
 10
170.6946678807664
 20
177.8799866803922
 10
170.6539023663201
 20
178.093092892307
 10
170.6120269422993
 20
178.3060186161453
 10
170.5690268491423
 20
178.5187510953098
 10
170.5256856103514
 20
178.7274843378893
 10
170.4812312904999
 20
178.9360067853575
 10
170.4356499066813
 20
179.1443063523757
 10
170.3889274759893
 20
179.3523709536049
 10
170.3462354123821
 20
179.5379345192117
 10
170.3026126133495
 20
179.7232925350663
 10
170.2580491261348
 20
179.9084363990631
 10
170.2125349979815
 20
180.0933575090963
 10
170.1660602761328
 20
180.2780472630606
 10
170.1186150078323
 20
180.4624970588503
 10
170.0701892403234
 20
180.6466982943598
 10
170.0207730208494
 20
180.8306423674836
 10
169.9756466294972
 20
180.9952307678163
 10
169.92970993798
 20
181.1595996204697
 10
169.8829557870495
 20
181.3237427377501
 10
169.8353770174578
 20
181.4876539319639
 10
169.7869664699568
 20
181.6513270154177
 10
169.7386038386126
 20
181.8118396073935
 10
169.6894251821092
 20
181.9721106858651
 10
169.6394237179215
 20
182.1321343887384
 10
169.5885926635248
 20
182.2919048539192
 10
169.5358620429564
 20
182.4546688143619
 10
169.4822533573341
 20
182.6171567632312
 10
169.4277594003438
 20
182.7793624721547
 10
169.3723729656718
 20
182.9412797127604
 10
169.3160868470042
 20
183.1029022566761
 10
169.2588938380272
 20
183.2642238755295
 10
169.200786732427
 20
183.4252383409483
 10
169.1418881212333
 20
183.5855891496546
 10
169.0820650636996
 20
183.745621754853
 10
169.021310400578
 20
183.9053299688501
 10
168.9596169726204
 20
184.0647076039523
 10
168.8969776205785
 20
184.2237484724661
 10
168.8345291636016
 20
184.3796155386347
 10
168.771154575541
 20
184.535145927434
 10
168.7068470738719
 20
184.69033377677
 10
168.6415998760692
 20
184.8451732245484
 10
168.5740454056436
 20
185.0028074377184
 10
168.5054982242619
 20
185.1600665515753
 10
168.4359511256102
 20
185.316944337747
 10
168.3653969033747
 20
185.4734345678613
 10
168.2938283512415
 20
185.6295310135459
 10
168.2212382628968
 20
185.7852274464287
 10
168.1476194320267
 20
185.9405176381375
 10
168.0729646523174
 20
186.0953953603001
 10
167.997266717455
 20
186.2498543845443
 10
167.9205184211257
 20
186.4038884824978
 10
167.8427125570156
 20
186.5574914257885
 10
167.763841918811
 20
186.7106569860442
 10
167.6838993001979
 20
186.8633789348927
 10
167.6028774948625
 20
187.0156510439617
 10
167.5276533163822
 20
187.1548333193904
 10
167.4515107152791
 20
187.2936275734537
 10
167.3744441408566
 20
187.432029008719
 10
167.2964480424181
 20
187.5700328277537
 10
167.2175168692671
 20
187.7076342331253
 10
167.1376450707068
 20
187.8448284274014
 10
167.057674787066
 20
187.9801863566755
 10
166.9767725794961
 20
188.1151361767658
 10
166.894933069148
 20
188.2496732387668
 10
166.8121508771728
 20
188.3837928937724
 10
166.7284206247213
 20
188.5174904928772
 10
166.6437369329445
 20
188.6507613871752
 10
166.5580944229933
 20
188.7836009277607
 10
166.4787418998243
 20
188.9049876038845
 10
166.3985750402398
 20
189.0260043358559
 10
166.3175897011563
 20
189.1466475428338
 10
166.2357817394905
 20
189.2669136439771
 10
166.153147012159
 20
189.3867990584445
 10
166.0696813760784
 20
189.5063002053948
 10
165.9853806881654
 20
189.625413503987
 10
165.9002408053366
 20
189.7441353733797
 10
165.8142575845085
 20
189.8624622327319
 10
165.7274268825977
 20
189.9803905012024
 10
165.6397445565211
 20
190.0979165979498
 10
165.551206463195
 20
190.2150369421333
 10
165.4669401541
 20
190.3250898417078
 10
165.3819059296157
 20
190.4347758508466
 10
165.2961003170891
 20
190.5440919681574
 10
165.2095198438676
 20
190.6530351922482
 10
165.1221610372985
 20
190.7616025217268
 10
165.0286533658458
 20
190.8763355861417
 10
164.9342621092982
 20
190.9906388552017
 10
164.8389831245723
 20
191.1045087480657
 10
164.7428122685846
 20
191.2179416838924
 10
164.6457453982519
 20
191.3309340818407
 10
164.5477783704907
 20
191.4434823610694
 10
164.4545812654337
 20
191.5491893162773
 10
164.3605767830239
 20
191.6544952743202
 10
164.2657614506087
 20
191.759397233806
 10
164.1701317955353
 20
191.8638921933425
 10
164.0736843451509
 20
191.9679771515375
 10
163.9764156268027
 20
192.0716491069988
 10
163.878322167838
 20
192.1749050583344
 10
163.7794004956039
 20
192.2777420041518
 10
163.6796471374477
 20
192.3801569430592
 10
163.5790586207167
 20
192.4821468736641
 10
163.4794500460174
 20
192.5818989595076
 10
163.379029233865
 20
192.6812353417768
 10
163.2777928943395
 20
192.7801531770146
 10
163.1757377375206
 20
192.8786496217632
 10
163.0646060678206
 20
192.9845384177422
 10
162.9525115448487
 20
193.0899289073743
 10
162.8394500255214
 20
193.1948175098185
 10
162.7254173667556
 20
193.2992006442336
 10
162.6104094254677
 20
193.4030747297782
 10
162.4944220585743
 20
193.5064361856114
 10
162.3841617448706
 20
193.6034185282847
 10
162.2730235860225
 20
193.6999389689195
 10
162.1610041093775
 20
193.7959945061235
 10
162.0480998422825
 20
193.8915821385045
 10
161.934307312085
 20
193.9866988646704
 10
161.8196230461321
 20
194.0813416832289
 10
161.7040435717711
 20
194.1755075927881
 10
161.5875654163491
 20
194.2691935919555
 10
161.4701851072135
 20
194.3623966793391
 10
161.3518991717114
 20
194.4551138535468
 10
161.2348406120794
 20
194.5456994847248
 10
161.116901841439
 20
194.635810663208
 10
160.9980795698701
 20
194.7254445455388
 10
160.8783705074526
 20
194.8145982882597
 10
160.7555703933219
 20
194.9048767552506
 10
160.6318440649548
 20
194.9946515150975
 10
160.5071880496984
 20
195.0839195664084
 10
160.3815988749001
 20
195.172677907791
 10
160.255073067907
 20
195.2609235378533
 10
160.1298915970879
 20
195.3470913892789
 10
160.0038000068959
 20
195.4327589383965
 10
159.876795007411
 20
195.5179233417486
 10
159.7488733087131
 20
195.6025817558778
 10
159.6173925963826
 20
195.6884433576512
 10
159.4849504656907
 20
195.7737721250143
 10
159.3515434211548
 20
195.8585650368435
 10
159.2171679672927
 20
195.9428190720151
 10
159.0818206086219
 20
196.0265312094054
 10
158.9454978496599
 20
196.1096984278908
 10
158.8081961949245
 20
196.1923177063475
 10
158.6827991917466
 20
196.2667857812822
 10
158.5565912248569
 20
196.3407982462008
 10
158.4295696852
 20
196.4143528461132
 10
158.3017319637204
 20
196.4874473260289
 10
158.1730754513627
 20
196.5600794309575
 10
158.0435975390716
 20
196.6322469059086
 10
157.9132956177914
 20
196.703947495892
 10
157.7690086600935
 20
196.7822762014049
 10
157.6237180219091
 20
196.8600342461763
 10
157.4774202305855
 20
196.9372186288139
 10
157.33011181347
 20
197.0138263479257
 10
157.1817892979096
 20
197.0898544021194
 10
157.0324492112518
 20
197.1652997900028
 10
156.8820880808437
 20
197.2401595101839
 10
156.7307024340325
 20
197.3144305612703
 10
156.5782887981655
 20
197.3881099418701
 10
156.4248437005899
 20
197.4611946505908
 10
156.2731313362486
 20
197.5323925331592
 10
156.1204173795501
 20
197.6030110538883
 10
155.9666985405742
 20
197.6730473693208
 10
155.8119715294009
 20
197.7424986359993
 10
155.6798949407195
 20
197.8009660676837
 10
155.5470881639804
 20
197.8590085232468
 10
155.4135491895466
 20
197.9166242657717
 10
155.279276007781
 20
197.9738115583417
 10
155.1442666090466
 20
198.03056866404
 10
155.0085189837064
 20
198.0868938459499
 10
154.8475802413703
 20
198.1527202292726
 10
154.6856099983125
 20
198.217941401143
 10
154.5226049646129
 20
198.2825545181036
 10
154.3585618503516
 20
198.3465567366971
 10
154.2112148987121
 20
198.4031830330425
 10
154.0630354312001
 20
198.4593180342461
 10
153.9140211061154
 20
198.5149597163909
 10
153.7641695817578
 20
198.5701060555603
 10
153.6134785164274
 20
198.6247550278372
 10
153.4619455684238
 20
198.6789046093049
 10
153.3095683960471
 20
198.7325527760466
 10
153.1563446575969
 20
198.7856975041453
 10
153.0099490367124
 20
198.8357327245554
 10
152.8627847780822
 20
198.8853097370181
 10
152.7148498720693
 20
198.9344268046169
 10
152.5661423090368
 20
198.9830821904348
 10
152.4166600793477
 20
199.0312741575551
 10
152.2664011733649
 20
199.0790009690612
 10
152.124015312895
 20
199.123572929053
 10
151.9809355320852
 20
199.1677283752628
 10
151.8371601464964
 20
199.2114658518405
 10
151.6926874716895
 20
199.2547839029358
 10
151.5475158232254
 20
199.2976810726985
 10
151.384666449668
 20
199.3450585976353
 10
151.2209419838721
 20
199.3919080289421
 10
151.0563400841374
 20
199.438227342702
 10
150.890858408764
 20
199.4840145149984
 10
150.7244946160516
 20
199.5292675219143
 10
150.5572463643002
 20
199.5739843395328
 10
150.3891113118096
 20
199.6181629439372
 10
150.2200871168796
 20
199.6618013112105
 10
150.0501714378103
 20
199.704897417436
 10
149.8793619329013
 20
199.7474492386967
 10
149.7076562604527
 20
199.7894547510759
 10
149.5350520787642
 20
199.8309119306567
 10
149.3615470461357
 20
199.8718187535222
 10
149.1871388208671
 20
199.9121731957557
 10
149.0118250612584
 20
199.9519732334402
 10
148.8356034256092
 20
199.9912168426589
 10
148.6500139783473
 20
200.0317301857125
 10
148.4634228695438
 20
200.0716282970758
 10
148.2758274067871
 20
200.1109088497143
 10
148.0872248976657
 20
200.1495695165935
 10
147.8976126497682
 20
200.187607970679
 10
147.706987970683
 20
200.2250218849361
  0
LWPOLYLINE
  5
7C
100
AcDbEntity
  8
Geometries
  6
CONTINUOUS
 62
  256
370
   40
100
AcDbPolyline
 90
  189
 70
    0
 43
0
 10
215
 20
120.5873286881854
 10
214.8496235168989
 20
120.5899149254228
 10
214.6982934510288
 20
120.5926902028707
 10
214.5460210221247
 20
120.5956458138307
 10
214.3928174499215
 20
120.5987730516048
 10
214.2386939541541
 20
120.6020632094945
 10
214.0836617545576
 20
120.6055075808017
 10
213.9366663198886
 20
120.6088885550655
 10
213.7888824443418
 20
120.6123915840463
 10
213.6403195320831
 20
120.616009369957
 10
213.4909869872784
 20
120.6197346150107
 10
213.3408942140938
 20
120.6235600214205
 10
213.1724937821181
 20
120.6279387721358
 10
213.0031711855453
 20
120.6324230497932
 10
212.8329394980075
 20
120.6370027090401
 10
212.6618117931365
 20
120.6416676045237
 10
212.4898011445644
 20
120.6464075908913
 10
212.3169206259232
 20
120.65121252279
 10
212.1431833108447
 20
120.6560722548673
 10
211.9686022729609
 20
120.6609766417704
 10
211.7680647276823
 20
120.6666233203057
 10
211.5664617680303
 20
120.672299928355
 10
211.363812909164
 20
120.6779913218351
 10
211.1601376662426
 20
120.6836823566623
 10
210.955455554425
 20
120.6893578887536
 10
210.7497860888703
 20
120.6950027740253
 10
210.5431487847378
 20
120.7006018683941
 10
210.3147531879768
 20
120.7066899092435
 10
210.0852360945557
 20
120.7126840619846
 10
209.8546234791513
 20
120.7185641698423
 10
209.6229413164403
 20
120.7243100760418
 10
209.3902155810994
 20
120.7299016238079
 10
209.1422738534216
 20
120.73564090755
 10
208.8932184342005
 20
120.7411598334708
 10
208.643080312786
 20
120.7464343533269
 10
208.391890478528
 20
120.7514404188747
 10
208.1396799207763
 20
120.7561539818707
 10
207.8864796288807
 20
120.7605509940715
 10
207.6468692524848
 20
120.7643852070638
 10
207.4064325462099
 20
120.7678964776867
 10
207.1651954847329
 20
120.7710646491651
 10
206.9231840427305
 20
120.773869564724
 10
206.6804241948794
 20
120.7762910675886
 10
206.4086349732999
 20
120.7785161644824
 10
206.1359819901892
 20
120.7802105471527
 10
205.8625013554339
 20
120.7813461937357
 10
205.5882291789202
 20
120.7818950823674
 10
205.3132015705347
 20
120.7818291911841
 10
205.0374546401638
 20
120.781120498322
 10
204.7610244976939
 20
120.779740981917
 10
204.4839472530113
 20
120.7776626201055
 10
204.2200731532942
 20
120.7750143965239
 10
203.955678270513
 20
120.7716857084213
 10
203.6907935940176
 20
120.7676525075539
 10
203.4254501131577
 20
120.7628907456783
 10
203.1596788172833
 20
120.7573763745509
 10
202.8935106957442
 20
120.7510853459283
 10
202.6422165643077
 20
120.7444208431099
 10
202.3906231865301
 20
120.7370243724555
 10
202.1387565370881
 20
120.7288757771904
 10
201.8866425906585
 20
120.7199549005395
 10
201.634307321918
 20
120.7102415857278
 10
201.3817767055432
 20
120.6997156759804
 10
201.1290767162111
 20
120.6883570145223
 10
200.8762333285983
 20
120.6761454445785
 10
200.6232725173815
 20
120.6630608093739
 10
200.3702202572375
 20
120.6490829521338
 10
200.1216229060438
 20
120.6344657573386
 10
199.872987005964
 20
120.6189484170329
 10
199.6243371648745
 20
120.6025118351012
 10
199.375697990652
 20
120.5851369154279
 10
199.1225745000141
 20
120.5664622652714
 10
198.8695135531753
 20
120.5467748921989
 10
198.6165411248125
 20
120.5260546394356
 10
198.3636831896024
 20
120.5042813502064
 10
198.1109657222217
 20
120.4814348677364
 10
197.8629229270262
 20
120.4579322367767
 10
197.6150652909129
 20
120.4333558592556
 10
197.3674174217585
 20
120.4076866390576
 10
197.1200039274393
 20
120.380905480067
 10
196.8993171261423
 20
120.3560385539288
 10
196.6788542996781
 20
120.3302563814487
 10
196.458632963447
 20
120.3035453703887
 10
196.2386706328494
 20
120.2758919285109
 10
196.018984823286
 20
120.2472824635774
 10
195.799593050157
 20
120.2177033833505
 10
195.5805128288629
 20
120.187141095592
 10
195.3617616748042
 20
120.1555820080642
 10
195.1636301923112
 20
120.1260809245708
 10
194.9657969668593
 20
120.0957383008208
 10
194.7682750720805
 20
120.0645439914613
 10
194.5710775816068
 20
120.0324878511398
 10
194.3742175690701
 20
119.9995597345034
 10
194.1777081081023
 20
119.9657494961994
 10
193.9815622723355
 20
119.931046990875
 10
193.7857931354017
 20
119.8954420731777
 10
193.5811199364639
 20
119.85716273542
 10
193.3768895466575
 20
119.8178701955847
 10
193.1731169976242
 20
119.7775527888714
 10
192.9698173210056
 20
119.7361988504799
 10
192.7670055484434
 20
119.6937967156097
 10
192.5646967115791
 20
119.6503347194605
 10
192.3917008271308
 20
119.6122291747227
 10
192.2190949561059
 20
119.5733290405712
 10
192.0468885644942
 20
119.5336269712427
 10
191.875091118286
 20
119.4931156209737
 10
191.7037120834711
 20
119.4517876440007
 10
191.5327609260398
 20
119.4096356945601
 10
191.362247111982
 20
119.3666524268887
 10
191.2063350610545
 20
119.3265145344183
 10
191.0508057453288
 20
119.2856662731221
 10
190.8956664560277
 20
119.2441019848916
 10
190.7409244843737
 20
119.2018160116187
 10
190.5865871215896
 20
119.1588026951949
 10
190.432661658898
 20
119.1150563775118
 10
190.2652213102763
 20
119.0664904883544
 10
190.0982892999537
 20
119.0170381877399
 10
189.9318750939202
 20
118.9666921299049
 10
189.765988158166
 20
118.9154449690859
 10
189.6006379586809
 20
118.8632893595195
 10
189.4358339614553
 20
118.8102179554421
 10
189.271585632479
 20
118.7562234110903
 10
189.1215208879929
 20
118.705911185215
 10
188.9719383044722
 20
118.6548114344913
 10
188.8228451731398
 20
118.6029185008107
 10
188.6742487852183
 20
118.5502267260649
 10
188.5261564319304
 20
118.4967304521457
 10
188.3785754044987
 20
118.4424240209447
 10
188.231512994146
 20
118.3873017743535
 10
188.0849764920948
 20
118.3313580542638
 10
187.9389731895679
 20
118.2745872025674
 10
187.793510377788
 20
118.2169835611559
 10
187.6485953479777
 20
118.1585414719209
 10
187.5042353913596
 20
118.0992552767541
 10
187.3686395278134
 20
118.0425786483879
 10
187.2335497061178
 20
117.9851418546145
 10
187.0989720376354
 20
117.9269401529166
 10
186.9649126337287
 20
117.8679688007766
 10
186.8313776057602
 20
117.8082230556769
 10
186.6967276031044
 20
117.74694295748
 10
186.5626276633251
 20
117.6848593655738
 10
186.4290841278962
 20
117.6219673588706
 10
186.2961033382915
 20
117.5582620162828
 10
186.1636916359848
 20
117.4937384167227
 10
186.0318553624499
 20
117.4283916391028
 10
185.9006008591607
 20
117.3622167623354
 10
185.7699344675909
 20
117.2952088653327
 10
185.6336835629799
 20
117.2241112879901
 10
185.4980923653412
 20
117.1520884071871
 10
185.3631681658972
 20
117.0791345648154
 10
185.2289182558709
 20
117.0052441027667
 10
185.0953499264847
 20
116.9304113629327
 10
184.9624704689615
 20
116.854630687205
 10
184.8491276037271
 20
116.7889170537617
 10
184.7363007968067
 20
116.7224992575198
 10
184.6239946397572
 20
116.6553737353558
 10
184.5122137241359
 20
116.5875369241461
 10
184.4009626414999
 20
116.5189852607669
 10
184.2902459834063
 20
116.4497151820948
 10
184.1800683414122
 20
116.3797231250061
 10
184.0595009788371
 20
116.3018937245494
 10
183.9395974928892
 20
116.2231816763115
 10
183.820363994931
 20
116.1435822377749
 10
183.701806596325
 20
116.0630906664221
 10
183.5839314084337
 20
115.9817022197355
 10
183.4773692902919
 20
115.906930451801
 10
183.3713806249281
 20
115.8314099820228
 10
183.2659700038996
 20
115.7551372472773
 10
183.1611420187633
 20
115.678108684441
 10
183.0569012610765
 20
115.6003207303902
 10
182.9532523223963
 20
115.5217698220012
 10
182.8501997942799
 20
115.4424523961505
 10
182.7562628284653
 20
115.3690683483317
 10
182.6628344080454
 20
115.2950344743974
 10
182.5699180696883
 20
115.2203480298353
 10
182.4775173500622
 20
115.1450062701329
 10
182.3856357858353
 20
115.0690064507776
 10
182.2942769136756
 20
114.9923458272572
 10
182.2034442702514
 20
114.915021655059
 10
182.1131413922307
 20
114.8370311896707
 10
182.0233718162816
 20
114.7583716865798
 10
181.9341390790724
 20
114.6790404012738
 10
181.8454467172712
 20
114.5990345892403
 10
181.757298267546
 20
114.5183515059668
 10
181.67468822875
 20
114.4416560935579
 10
181.5925678250824
 20
114.3643538606254
 10
181.5109400209104
 20
114.2864425067717
 10
181.4298077806011
 20
114.2079197315995
 10
181.3491740685218
 20
114.128783234711
  0
ARC
  5
7D
100
AcDbEntity
  8
Geometries
  6
CONTINUOUS
 62
  256
370
   40
100
AcDbCircle
 10
149.8030892561418
 20
211.0234643374891
 40
10.99999999999999
100
AcDbArc
 50
101.3099324740201
 51
259.0148445810482
  0
CIRCLE
  5
7E
100
AcDbEntity
  8
Geometries
  6
CONTINUOUS
 62
  256
370
   40
100
AcDbCircle
 10
256.3831532605352
 20
121.9525364309921
 40
6.4
  0
ARC
  5
7F
100
AcDbEntity
  8
Geometries
  6
CONTINUOUS
 62
  256
370
   40
100
AcDbCircle
 10
156.3329921571698
 20
140.9554027080752
 40
10.99999999999998
100
AcDbArc
 50
109.0629611981206
 51
165.2461021689962
  0
CIRCLE
  5
80
100
AcDbEntity
  8
Geometries
  6
CONTINUOUS
 62
  256
370
   40
100
AcDbCircle
 10
184.6891108675447
 20
181.4164281942609
 40
3.25
  0
LINE
  5
81
100
AcDbEntity
  8
Geometries
  6
CONTINUOUS
 62
  256
370
   40
100
AcDbLine
 10
175.7801800727981
 20
111.1673619359323
 11
152.2488902653948
 21
106.4473619359323
  0
CIRCLE
  5
82
100
AcDbEntity
  8
Geometries
  6
CONTINUOUS
 62
  256
370
   40
100
AcDbCircle
 10
150.0855569320615
 20
117.2325364309921
 40
6.400000000000007
  0
ARC
  5
83
100
AcDbEntity
  8
Geometries
  6
CONTINUOUS
 62
  256
370
   40
100
AcDbCircle
 10
173.6168467394647
 20
121.9525364309921
 40
11
100
AcDbArc
 50
281.3421020921339
 51
314.663266334322
  0
CIRCLE
  5
84
100
AcDbEntity
  8
Geometries
  6
CONTINUOUS
 62
  256
370
   40
100
AcDbCircle
 10
280.1969107438582
 20
211.0234643374891
 40
6.400000000000007
  0
LINE
  5
85
100
AcDbEntity
  8
Geometries
  6
CONTINUOUS
 62
  256
370
   40
100
AcDbLine
 10
139.4482421548567
 20
120.0338815240963
 11
145.695677379965
 21
143.7567478011794
  0
CIRCLE
  5
86
100
AcDbEntity
  8
Geometries
  6
CONTINUOUS
 62
  256
370
   40
100
AcDbCircle
 10
256.4769145862639
 20
215.767463569008
 40
6.400000000000007
  0
LWPOLYLINE
  5
87
100
AcDbEntity
  8
Geometries
  6
CONTINUOUS
 62
  256
370
   40
100
AcDbPolyline
 90
  271
 70
    0
 43
0
 10
282.293012029317
 20
200.2250218849361
 10
282.121851632739
 20
200.1914660929831
 10
281.9515072466545
 20
200.1574068725673
 10
281.7819769236443
 20
200.122845906831
 10
281.6132587162889
 20
200.0877848789167
 10
281.445350677169
 20
200.0522254719669
 10
281.2782508588651
 20
200.0161693691239
 10
281.1119573139579
 20
199.9796182535304
 10
280.9299633360881
 20
199.938842295481
 10
280.7489400006356
 20
199.8974716488682
 10
280.5688847155852
 20
199.8555085539549
 10
280.3897948889218
 20
199.8129552510034
 10
280.2116679286299
 20
199.7698139802765
 10
280.0345012426947
 20
199.7260869820367
 10
279.8582922391006
 20
199.6817764965466
 10
279.6830383258327
 20
199.6368847640688
 10
279.5087369108757
 20
199.5914140248661
 10
279.3353854022144
 20
199.5453665192009
 10
279.166051562055
 20
199.4995820487357
 10
278.9976290499783
 20
199.4532455100389
 10
278.8301154103625
 20
199.4063590254895
 10
278.6635081875851
 20
199.3589247174662
 10
278.4948004914038
 20
199.310067306644
 10
278.3270273345709
 20
199.2606464109163
 10
278.1601861250712
 20
199.2106642705457
 10
277.9942742708895
 20
199.1601231257947
 10
277.8292891800106
 20
199.1090252169259
 10
277.668149830535
 20
199.0582999987855
 10
277.5078994853049
 20
199.007042006767
 10
277.3485356886983
 20
198.9552533632493
 10
277.190055985093
 20
198.9029361906114
 10
277.0292507944791
 20
198.8490087045997
 10
276.8693609845843
 20
198.7945353616028
 10
276.7103839463529
 20
198.739518416611
 10
276.5523170707295
 20
198.6839601246146
 10
276.3951577486588
 20
198.6278627406041
 10
276.2389033710853
 20
198.5712285195697
 10
276.0835513289535
 20
198.5140597165019
 10
275.929435022592
 20
198.4564850575845
 10
275.7762119288059
 20
198.3983826322342
 10
275.62387945558
 20
198.3397546807137
 10
275.472435010899
 20
198.2806034432855
 10
275.3218760027478
 20
198.2209311602122
 10
275.1748649009847
 20
198.1618194491151
 10
275.0287029394722
 20
198.1022094183426
 10
274.8833876625881
 20
198.0421031902738
 10
274.7389166147104
 20
197.9815028872874
 10
274.5923648781344
 20
197.9191587435491
 10
274.4466870145774
 20
197.8563046176721
 10
274.3018804149839
 20
197.7929427646469
 10
274.1579424702985
 20
197.7290754394639
 10
274.0148705714659
 20
197.6647048971134
 10
273.8726621094305
 20
197.5998333925857
 10
273.731314475137
 20
197.5344631808713
 10
273.5908250595299
 20
197.4685965169605
 10
273.4511912535539
 20
197.4022356558436
 10
273.3124104481535
 20
197.3353828525111
 10
273.1744800342732
 20
197.2680403619532
 10
273.0373974028576
 20
197.2002104391604
 10
272.9011599448514
 20
197.131895339123
 10
272.765765051199
 20
197.0630973168313
 10
272.6178007161025
 20
196.9868644084379
 10
272.4708492542644
 20
196.9100528940473
 10
272.3249071930318
 20
196.8326657750519
 10
272.1799710597521
 20
196.7547060528436
 10
272.0360373817725
 20
196.6761767288148
 10
271.9063382605908
 20
196.604452018913
 10
271.7774585541755
 20
196.5322633255651
 10
271.6493956705115
 20
196.459612889034
 10
271.5221470175834
 20
196.386502949582
 10
271.3957100033762
 20
196.3129357474719
 10
271.2723183128171
 20
196.2402393255758
 10
271.1497045768032
 20
196.1671061093664
 10
271.0278663397123
 20
196.0935382212226
 10
270.9068011459223
 20
196.0195377835234
 10
270.7840595542419
 20
195.9435834545392
 10
270.6621177146877
 20
195.8671832056425
 10
270.5409730182043
 20
195.7903392918239
 10
270.4206228557363
 20
195.7130539680737
 10
270.3010646182282
 20
195.6353294893821
 10
270.1822956966247
 20
195.5571681107397
 10
270.0643134818703
 20
195.4785720871367
 10
269.9276583939486
 20
195.3863303917241
 10
269.7920664071626
 20
195.2935037463599
 10
269.6575333784291
 20
195.2000957318853
 10
269.5240551646647
 20
195.1061099291414
 10
269.3916276227858
 20
195.0115499189696
 10
269.2602466097093
 20
194.9164192822109
 10
269.1373278956006
 20
194.8262052517532
 10
269.0153323684701
 20
194.7354901305921
 10
268.8942565556649
 20
194.6442769201198
 10
268.7740969845323
 20
194.5525686217285
 10
268.6548501824196
 20
194.4603682368104
 10
268.5293698543688
 20
194.362045570386
 10
268.4049082372747
 20
194.2631763201657
 10
268.2814611880539
 20
194.1637640669903
 10
268.1590245636231
 20
194.0638123917013
 10
268.0375942208988
 20
193.9633248751396
 10
267.9171660167978
 20
193.8623050981466
 10
267.8045335790856
 20
193.7665735900203
 10
267.6927848663881
 20
193.6703750979197
 10
267.5819164060529
 20
193.5737126232373
 10
267.4719247254269
 20
193.476589167365
 10
267.3628063518575
 20
193.3790077316951
 10
267.2545578126919
 20
193.2809713176198
 10
267.1471756352773
 20
193.1824829265311
 10
267.0406563469609
 20
193.0835455598214
 10
266.93499647509
 20
192.9841622188828
 10
266.8301925470117
 20
192.8843359051074
 10
266.7280899107778
 20
192.7858639300446
 10
266.6268062821999
 20
192.6869703999635
 10
266.5263383713577
 20
192.5876581583215
 10
266.4266828883313
 20
192.4879300485762
 10
266.3248045004282
 20
192.3846976492282
 10
266.223782264004
 20
192.2810295021813
 10
266.1236125756503
 20
192.1769287218393
 10
266.0242918319584
 20
192.0723984226057
 10
265.9258164295196
 20
191.9674417188844
 10
265.8281827649252
 20
191.8620617250789
 10
265.7313872347668
 20
191.7562615555928
 10
265.6354262356355
 20
191.6500443248298
 10
265.5357868254558
 20
191.5383251998848
 10
265.4370552199646
 20
191.426155346741
 10
265.3392272760785
 20
191.3135383462396
 10
265.2422988507142
 20
191.2004777792217
 10
265.1462658007881
 20
191.0869772265285
 10
265.0511239832169
 20
190.9730402690012
 10
264.9568692549174
 20
190.858670487481
 10
264.863497472806
 20
190.7438714628092
 10
264.7710044937994
 20
190.6286467758267
 10
264.6793861748142
 20
190.5130000073748
 10
264.588638372767
 20
190.3969347382948
 10
264.4987569445745
 20
190.2804545494277
 10
264.4148014032738
 20
190.1702535559858
 10
264.3316088948794
 20
190.0596898920078
 10
264.2491759467385
 20
189.948766558886
 10
264.1674990861985
 20
189.8374865580126
 10
264.0865748406065
 20
189.7258528907796
 10
264.0015646405961
 20
189.6070704253889
 10
263.9173929965947
 20
189.487897083002
 10
263.834055765519
 20
189.3683364444599
 10
263.7515488042857
 20
189.248392090604
 10
263.6698679698112
 20
189.1280676022753
 10
263.5890091190123
 20
189.0073665603151
 10
263.5135199214738
 20
188.8932210456519
 10
263.4387542948783
 20
188.7787469671818
 10
263.3647087665731
 20
188.6639473262972
 10
263.2913798639054
 20
188.5488251243901
 10
263.2187641142224
 20
188.4333833628528
 10
263.1385576134386
 20
188.3041684425469
 10
263.0592302737621
 20
188.1745633849367
 10
262.9807772675254
 20
188.0445723625451
 10
262.9031937670613
 20
187.9141995478948
 10
262.8264749447026
 20
187.7834491135086
 10
262.7506159727819
 20
187.6523252319094
 10
262.6756120236321
 20
187.5208320756198
 10
262.6014582695856
 20
187.3889738171627
 10
262.5179274327135
 20
187.2381672150642
 10
262.4354887771117
 20
187.0868974372018
 10
262.3541351435319
 20
186.9351706712689
 10
262.2738593727263
 20
186.7829931049592
 10
262.1946543054466
 20
186.6303709259662
 10
262.1178988819033
 20
186.4800473558106
 10
262.042162575529
 20
186.3293067409909
 10
261.9674386037989
 20
186.178154943601
 10
261.8937201841882
 20
186.0265978257351
 10
261.8195268116366
 20
185.8715359766855
 10
261.7463661844522
 20
185.7160644268307
 10
261.6742310963209
 20
185.5601894045429
 10
261.603114340929
 20
185.4039171381944
 10
261.5330087119626
 20
185.2472538561574
 10
261.4639070031077
 20
185.090205786804
 10
261.3958020080507
 20
184.9327791585064
 10
261.3286865204777
 20
184.7749801996369
 10
261.2625533340748
 20
184.6168151385677
 10
261.1973952425281
 20
184.4582902036709
 10
261.1332050395239
 20
184.2994116233187
 10
261.0699755187482
 20
184.1401856258834
 10
261.0076994738872
 20
183.9806184397372
 10
260.9463696986271
 20
183.8207162932522
 10
260.8799912864944
 20
183.6444444864896
 10
260.8147395493353
 20
183.467783204011
 10
260.7506048955461
 20
183.2907407357796
 10
260.687577733523
 20
183.1133253717589
 10
260.6256484716623
 20
182.9355454019123
 10
260.5670946498361
 20
182.7641697946835
 10
260.5095396303777
 20
182.5924717620213
 10
260.4529748718743
 20
182.4204586862159
 10
260.3973918329127
 20
182.2481379495576
 10
260.3427819720797
 20
182.0755169343363
 10
260.2891367479624
 20
181.9026030228423
 10
260.2394328194858
 20
181.7393082699981
 10
260.190571680973
 20
181.5757658887438
 10
260.1425461731758
 20
181.4119820667729
 10
260.0953491368462
 20
181.2479629917789
 10
260.0489734127361
 20
181.0837148514555
 10
259.9981758521783
 20
180.9001392939518
 10
259.9483824603705
 20
180.7162947187306
 10
259.8995832845561
 20
180.5321897278974
 10
259.8517683719784
 20
180.3478329235578
 10
259.8049277698809
 20
180.1632329078174
 10
259.7590515255069
 20
179.9783982827817
 10
259.7141296861001
 20
179.7933376505563
 10
259.6701522989035
 20
179.6080596132468
 10
259.6271094111608
 20
179.4225727729587
 10
259.5849910701153
 20
179.2368857317977
 10
259.5437873230104
 20
179.0510070918692
 10
259.5034882170896
 20
178.8649454552789
 10
259.4640837995961
 20
178.6787094241324
 10
259.4255641177735
 20
178.4923076005352
 10
259.3879192188651
 20
178.3057485865928
 10
259.3511391501144
 20
178.1190409844109
 10
259.3135243893961
 20
177.923292546621
 10
259.2768364181121
 20
177.7274003636798
 10
259.2410637929031
 20
177.5313743260118
 10
259.2061950704095
 20
177.3352243240413
 10
259.1722188072719
 20
177.1389602481927
 10
259.1391235601308
 20
176.9425919888904
 10
259.1040110026698
 20
176.7282648706589
 10
259.0699184519194
 20
176.5138383763905
 10
259.0368310512866
 20
176.2993253465459
 10
259.0047339441786
 20
176.084738621586
 10
258.9736122740023
 20
175.8700910419714
 10
258.9434511841649
 20
175.6553954481631
 10
258.9142358180734
 20
175.4406646806218
 10
258.8831734949556
 20
175.2044355357546
 10
258.8532177469677
 20
174.9681964582815
 10
258.8243487999845
 20
174.7319645388556
 10
258.7965468798809
 20
174.4957568681304
 10
258.7697922125316
 20
174.259590536759
 10
258.7440650238115
 20
174.0234826353949
 10
258.7193455395952
 20
173.7874502546913
 10
258.6956139857577
 20
173.5515104853016
 10
258.6728505881738
 20
173.3156804178791
 10
258.6510355727183
 20
173.0799771430771
 10
258.6305141083099
 20
172.8486228085018
 10
258.6108696498444
 20
172.617423455728
 10
258.5920834637207
 20
172.3863952760903
 10
258.5741368163377
 20
172.1555544609235
 10
258.5556776399389
 20
171.9065009002097
 10
258.5381520635806
 20
171.6577051087166
 10
258.5215364955434
 20
171.4091874766205
 10
258.505807344108
 20
171.1609683940974
 10
258.4909410175549
 20
170.9130682513236
 10
258.476913924165
 20
170.6655074384751
 10
258.4644358515309
 20
170.4324220763093
 10
258.4526630933695
 20
170.1996735886258
 10
258.4415758755554
 20
169.967279066078
 10
258.4311544239634
 20
169.7352555993193
 10
258.4213789644685
 20
169.5036202790029
 10
258.4098164096782
 20
169.2087574295387
 10
258.3992316308687
 20
168.9145893368138
 10
258.3895835935454
 20
168.6211514666867
 10
258.3808312632133
 20
168.3284792850158
 10
258.3729336053776
 20
168.0366082576597
 10
258.3658495855435
 20
167.7455738504767
 10
258.3595381692161
 20
167.4554115293254
 10
258.3546171976809
 20
167.2022627622659
 10
258.3502288437646
 20
166.9498325989767
 10
258.3463456175617
 20
166.6981447988122
 10
258.3429400291663
 20
166.4472231211267
 10
258.3399845886727
 20
166.1970913252748
 10
258.3374518061752
 20
165.9477731706107
 10
258.3353141917681
 20
165.6992924164889
 10
258.3335442555457
 20
165.4516728222638
 10
258.3320544417786
 20
165.193211354367
 10
258.3309063795664
 20
164.9357484081064
 10
258.3300684618997
 20
164.6793113012239
 10
258.3295090817687
 20
164.423927351461
 10
258.3291966321639
 20
164.1696238765594
 10
258.3290995060755
 20
163.9164281942608
  0
ARC
  5
88
100
AcDbEntity
  8
Geometries
  6
CONTINUOUS
 62
  256
370
   40
100
AcDbCircle
 10
280.1969107438582
 20
211.0234643374891
 40
10.99999999999999
100
AcDbArc
 50
280.985155418952
 51
78.69006752597961
  0
CIRCLE
  5
89
100
AcDbEntity
  8
Geometries
  6
CONTINUOUS
 62
  256
370
   40
100
AcDbCircle
 10
215
 20
198.9164281942609
 40
3.25
  0
LWPOLYLINE
  5
8A
100
AcDbEntity
  8
Geometries
  6
CONTINUOUS
 62
  256
370
   40
100
AcDbPolyline
 90
  186
 70
    0
 43
0
 10
248.6508259314782
 20
114.128783234711
 10
248.5663694434162
 20
114.2116441919247
 10
248.4813663507095
 20
114.2938321722164
 10
248.3958200581491
 20
114.3753498177595
 10
248.3097339705254
 20
114.4561997707273
 10
248.2231114926292
 20
114.5363846732932
 10
248.137517030905
 20
114.6144929165259
 10
248.0514116745665
 20
114.6919647008807
 10
247.9647986492426
 20
114.7688025294985
 10
247.8776811805624
 20
114.8450089055201
 10
247.7733166601783
 20
114.934910930144
 10
247.6682472394356
 20
115.0239258097487
 10
247.5624783605599
 20
115.1120577675905
 10
247.4560154657769
 20
115.1993110269258
 10
247.3488639973122
 20
115.2856898110109
 10
247.2410293973915
 20
115.3711983431022
 10
247.1325171082405
 20
115.455840846456
 10
247.0233325720848
 20
115.5396215443285
 10
246.9134812311501
 20
115.6225446599763
 10
246.8029685276621
 20
115.7046144166555
 10
246.6917999038463
 20
115.7858350376225
 10
246.5799808019286
 20
115.8662107461336
 10
246.4739604678254
 20
115.9412234806573
 10
246.3673712715609
 20
116.0154923994918
 10
246.260217774704
 20
116.0890210424891
 10
246.1525045388236
 20
116.1618129495017
 10
246.0442361254883
 20
116.2338716603815
 10
245.9288044077247
 20
116.3095003152869
 10
245.8127587525172
 20
116.3843124138861
 10
245.6961046020913
 20
116.4583121794354
 10
245.5788473986727
 20
116.5315038351912
 10
245.4609925844871
 20
116.6038916044099
 10
245.3425456017601
 20
116.6754797103477
 10
245.2303295296915
 20
116.7422484355669
 10
245.1175964314711
 20
116.8083135706901
 10
245.0043508686677
 20
116.8736786555693
 10
244.8905974028502
 20
116.9383472300568
 10
244.7763405955873
 20
117.0023228340048
 10
244.6482330649469
 20
117.072910229725
 10
244.5195105878681
 20
117.1426437810282
 10
244.3901795058248
 20
117.211528409002
 10
244.2602461602908
 20
117.2795690347343
 10
244.1297168927399
 20
117.3467705793124
 10
243.9985980446458
 20
117.4131379638241
 10
243.8668959574825
 20
117.4786761093572
 10
243.7346169727237
 20
117.543389936999
 10
243.6083830269799
 20
117.6041282816001
 10
243.4816392680075
 20
117.6641308719932
 10
243.3543911380323
 20
117.7234019314347
 10
243.2266440792798
 20
117.7819456831809
 10
243.0984035339758
 20
117.8397663504881
 10
242.969674944346
 20
117.8968681566127
 10
242.8173399573762
 20
117.9632495836594
 10
242.6643435306299
 20
118.0286452705237
 10
242.5106945734211
 20
118.0930621309792
 10
242.3564019950639
 20
118.1565070788
 10
242.1983063770875
 20
118.2202521293561
 10
242.0395593423084
 20
118.2829997371906
 10
241.8801703567166
 20
118.3447572480671
 10
241.7201488863021
 20
118.405532007749
 10
241.559504397055
 20
118.4653313619998
 10
241.3982463549654
 20
118.5241626565829
 10
241.2363842260233
 20
118.5820332372619
 10
241.0739274762189
 20
118.6389504498001
 10
240.9108855715422
 20
118.6949216399612
 10
240.7472679779831
 20
118.7499541535085
 10
240.5830841615319
 20
118.8040553362056
 10
240.4183435881786
 20
118.8572325338159
 10
240.2530557239132
 20
118.9094930921029
 10
240.0872300347258
 20
118.9608443568301
 10
239.9347587733366
 20
119.0071238341603
 10
239.7818508349008
 20
119.0526510829089
 10
239.6285135106411
 20
119.0974317611841
 10
239.4747540917803
 20
119.1414715270943
 10
239.320579869541
 20
119.1847760387479
 10
239.1659981351459
 20
119.2273509542531
 10
238.9972767544939
 20
119.2728722619709
 10
238.8280905581366
 20
119.3175430767511
 10
238.6584489502396
 20
119.3613706963806
 10
238.4883613349692
 20
119.4043624186464
 10
238.3178371164911
 20
119.4465255413353
 10
238.149942094534
 20
119.4871362752544
 10
237.9816439037337
 20
119.5269616914695
 10
237.8129514534045
 20
119.5660087037544
 10
237.6438736528604
 20
119.604284225883
 10
237.4421004702235
 20
119.6488539993642
 10
237.2398088145502
 20
119.6923518543371
 10
237.0370137174824
 20
119.7347894556022
 10
236.8337302106614
 20
119.7761784679597
 10
236.6299733257291
 20
119.81653055621
 10
236.4257580943271
 20
119.8558573851534
 10
236.2210995480969
 20
119.8941706195903
 10
236.0160127186803
 20
119.931481924321
 10
235.8105126377188
 20
119.9678029641458
 10
235.604614336854
 20
120.0031454038651
 10
235.3983328477277
 20
120.0375209082792
 10
235.1916832019814
 20
120.0709411421884
 10
234.9965184115241
 20
120.1015871791446
 10
234.8010522994004
 20
120.1314041470978
 10
234.6052974648432
 20
120.1604018232594
 10
234.4092665070852
 20
120.1885899848405
 10
234.2129720253592
 20
120.2159784090523
 10
234.0045069896037
 20
120.2441637280831
 10
233.7957747239649
 20
120.2714720974113
 10
233.5867902600845
 20
120.2979151818372
 10
233.3775686296041
 20
120.3235046461612
 10
233.1681248641653
 20
120.3482521551836
 10
232.9584739954098
 20
120.3721693737048
 10
232.7111400383757
 20
120.3993074629804
 10
232.4635638957816
 20
120.4253275522131
 10
232.2157701755042
 20
120.4502487375185
 10
231.9677834854198
 20
120.4740901150121
 10
231.7145624641086
 20
120.4973247817874
 10
231.4611922842673
 20
120.5194752900206
 10
231.2076990913333
 20
120.5405619289997
 10
230.954109030744
 20
120.5606049880127
 10
230.7004482479368
 20
120.5796247563477
 10
230.4467428883491
 20
120.5976415232928
 10
230.1930190974184
 20
120.6146755781359
 10
229.9245141914834
 20
120.6316548013749
 10
229.6560489145449
 20
120.6475801766481
 10
229.3876542559527
 20
120.6624757521992
 10
229.1193612050566
 20
120.6763655762716
 10
228.8512007512066
 20
120.6892736971089
 10
228.5832038837524
 20
120.7012241629545
 10
228.330698797867
 20
120.7116362179219
 10
228.0783926605253
 20
120.7212384723184
 10
227.8263114464042
 20
120.730051082919
 10
227.5744811301802
 20
120.7380942064986
 10
227.3229276865301
 20
120.7453879998323
 10
227.0425348772155
 20
120.7526682753852
 10
226.7625554089968
 20
120.7590683030726
 10
226.4830253917605
 20
120.7646161047585
 10
226.2039809353929
 20
120.7693397023067
 10
225.9254581497806
 20
120.773267117581
 10
225.6474931448099
 20
120.7764263724453
 10
225.3701220303672
 20
120.7788454887635
 10
225.093380916339
 20
120.7805524883993
 10
224.8173059126117
 20
120.7815753932167
 10
224.5419331290717
 20
120.7819422250794
 10
224.2672986756054
 20
120.7816810058515
 10
223.9934386620993
 20
120.7808197573965
 10
223.7203891984397
 20
120.7793865015786
 10
223.4481863945132
 20
120.7774092602614
 10
223.1768663602061
 20
120.7749160553088
 10
222.9064652054049
 20
120.7719349085848
 10
222.6644687479254
 20
120.7688652298837
 10
222.4232684731442
 20
120.7654449929317
 10
222.1828905264988
 20
120.7616944870168
 10
221.9433610534265
 20
120.757634001427
 10
221.7047061993646
 20
120.7532838254503
 10
221.4669521097507
 20
120.7486642483749
 10
221.2301249300222
 20
120.7437955594887
 10
220.9947643836886
 20
120.7387094042953
 10
220.7603787131045
 20
120.7334155807632
 10
220.5269938929466
 20
120.7279342456674
 10
220.2946358978917
 20
120.7222855557829
 10
220.0633307026164
 20
120.7164896678847
 10
219.8372058574729
 20
120.7106735025947
 10
219.6121462110002
 20
120.7047538888581
 10
219.3881763710747
 20
120.6987499227905
 10
219.165320945573
 20
120.6926807005074
 10
218.9673046473368
 20
120.6872221692675
 10
218.7702138861052
 20
120.6817404317165
 10
218.5740661772788
 20
120.6762490800924
 10
218.3788790362579
 20
120.6707617066329
 10
218.184669978443
 20
120.665291903576
 10
217.9914565192346
 20
120.6598532631596
 10
217.799256174033
 20
120.6544593776216
 10
217.6080864582388
 20
120.6491238391998
 10
217.437688179711
 20
120.6444039023979
 10
217.2681439678381
 20
120.6397514968717
 10
217.0994664218527
 20
120.6351763998325
 10
216.9316681409877
 20
120.6306883884914
 10
216.7647617244757
 20
120.6262972400596
 10
216.6017160877779
 20
120.6220882490357
 10
216.4395548370632
 20
120.6179913862914
 10
216.2782899085865
 20
120.6140159145561
 10
216.1179332386029
 20
120.6101710965592
 10
215.9552526228215
 20
120.6063921066052
 10
215.7935428260739
 20
120.6027686437575
 10
215.6328165304216
 20
120.5993105495039
 10
215.4730864179265
 20
120.5960276653321
 10
215.3143651706501
 20
120.59292983273
 10
215.156665470654
 20
120.5900268931851
 10
215
 20
120.5873286881854
  0
ARC
  5
8B
100
AcDbEntity
  8
Geometries
  6
CONTINUOUS
 62
  256
370
   40
100
AcDbCircle
 10
256.3831532605352
 20
121.9525364309921
 40
11
100
AcDbArc
 50
225.3367336656781
 51
258.657897907866
  0
CIRCLE
  5
8C
100
AcDbEntity
  8
Geometries
  6
CONTINUOUS
 62
  256
370
   40
100
AcDbCircle
 10
184.6891108675446
 20
146.4164281942609
 40
3.25
  0
ARC
  5
8D
100
AcDbEntity
  8
Geometries
  6
CONTINUOUS
 62
  256
370
   40
100
AcDbCircle
 10
173.5230854137362
 20
215.767463569008
 40
10.99999999999999
100
AcDbArc
 50
29.13911424982701
 51
101.3099324740202
  0
CIRCLE
  5
8E
100
AcDbEntity
  8
Geometries
  6
CONTINUOUS
 62
  256
370
   40
100
AcDbCircle
 10
173.5230854137362
 20
215.767463569008
 40
6.400000000000007
  0
LWPOLYLINE
  5
8F
100
AcDbEntity
  8
Geometries
  6
CONTINUOUS
 62
  256
370
   40
100
AcDbPolyline
 90
  186
 70
    0
 43
0
 10
152.7403154945467
 20
151.3521653964241
 10
152.8589626409836
 20
151.3928269910338
 10
152.9783585106687
 20
151.4330832684888
 10
153.0984879328161
 20
151.4729462795851
 10
153.2193357366397
 20
151.5124280751186
 10
153.3408867513536
 20
151.5515407058852
 10
153.4609370202901
 20
151.5896072216397
 10
153.5816366033787
 20
151.6273406802952
 10
153.7029711281276
 20
151.6647524985286
 10
153.8249262220451
 20
151.7018540930173
 10
153.9709000603349
 20
151.745634001956
 10
154.1177087718779
 20
151.7890096935118
 10
154.2653281076529
 20
151.8320004297061
 10
154.4137338186389
 20
151.8746254725604
 10
154.5629016558149
 20
151.9169040840959
 10
154.7128073701597
 20
151.9588555263342
 10
154.8936340826145
 20
152.0087925144738
 10
155.0754465172936
 20
152.0583194009092
 10
155.2582027718884
 20
152.1074694704133
 10
155.4418609440906
 20
152.1562760077591
 10
155.6263791315917
 20
152.2047722977195
 10
155.8083989239248
 20
152.2521328015243
 10
155.9911681744167
 20
152.2992576792333
 10
156.1746471856789
 20
152.3461784641585
 10
156.358796260323
 20
152.3929266896118
 10
156.5988859269953
 20
152.4534328526489
 10
156.8399518307117
 20
152.5137702286951
 10
157.081907017433
 20
152.5740078890159
 10
157.3246645331198
 20
152.6342149048762
 10
157.5681374237328
 20
152.6944603475414
 10
157.8122387352326
 20
152.7548132882766
 10
158.0568815135798
 20
152.815342798347
 10
158.3939897205465
 20
152.8989860572899
 10
158.7317311942551
 20
152.9832732888016
 10
159.0698798881699
 20
153.0683840511905
 10
159.4082097557549
 20
153.1544979027654
 10
159.6235014829206
 20
153.2099020531032
 10
159.8387167860168
 20
153.265831399158
 10
160.0537974126307
 20
153.3223322132813
 10
160.2686851103489
 20
153.3794507678246
 10
160.4833216267585
 20
153.4372333351393
 10
160.6976487094463
 20
153.4957261875771
 10
160.9116081059993
 20
153.5549755974893
 10
161.1251415640045
 20
153.6150278372274
 10
161.3164749811829
 20
153.6696745143422
 10
161.5073758025477
 20
153.7250393521974
 10
161.6978018503196
 20
153.7811558543841
 10
161.8877109467194
 20
153.8380575244935
 10
162.0770609139676
 20
153.8957778661166
 10
162.265809574285
 20
153.9543503828445
 10
162.4539147498924
 20
154.0138085782684
 10
162.6009118283106
 20
154.0610649264312
 10
162.7474671351028
 20
154.1089024005575
 10
162.8935603452062
 20
154.157337145703
 10
163.0391711335579
 20
154.2063853069235
 10
163.1842791750951
 20
154.2560630292745
 10
163.3262869749444
 20
154.3054820693336
 10
163.4677709617108
 20
154.3555392560399
 10
163.608711879846
 20
154.4062498848884
 10
163.749090473802
 20
154.4576292513741
 10
163.8917342976949
 20
154.5107623989869
 10
164.033752103006
 20
154.5646240355418
 10
164.1751234310532
 20
154.6192304122341
 10
164.3158278231542
 20
154.674597780259
 10
164.4558448206267
 20
154.7307423908118
 10
164.5951539647883
 20
154.7876804950878
 10
164.7337347969568
 20
154.8454283442822
 10
164.8580865776962
 20
154.8982222458835
 10
164.981814206835
 20
154.9517000362478
 10
165.1049026726696
 20
155.0058736398053
 10
165.2273369634962
 20
155.0607549809862
 10
165.3491020676111
 20
155.1163559842206
 10
165.4701829733105
 20
155.1726885739388
 10
165.5905646688907
 20
155.2297646745708
 10
165.7102321426479
 20
155.287596210547
 10
165.8170676721426
 20
155.3401801255072
 10
165.9233043290056
 20
155.3933914201161
 10
166.028931243982
 20
155.4472387282818
 10
166.1339375478167
 20
155.5017306839125
 10
166.238312371255
 20
155.5568759209162
 10
166.3420448450419
 20
155.6126830732012
 10
166.4451240999225
 20
155.6691607746756
 10
166.5475392666418
 20
155.7263176592475
 10
166.6492794759449
 20
155.7841623608252
 10
166.750333858577
 20
155.8427035133167
 10
166.8506915452831
 20
155.9019497506301
 10
166.9503416668082
 20
155.9619097066738
 10
167.0492733538975
 20
156.0225920153557
 10
167.1474757372961
 20
156.084005310584
 10
167.236844632604
 20
156.1409503565497
 10
167.32558320494
 20
156.1985235394551
 10
167.4136830822102
 20
156.2567315096079
 10
167.5011358923207
 20
156.3155809173159
 10
167.5879332631776
 20
156.3750784128868
 10
167.6740668226869
 20
156.4352306466282
 10
167.7672637940069
 20
156.5016058059197
 10
167.8596499422243
 20
156.5687767060687
 10
167.9512143980841
 20
156.6367519809834
 10
168.0419462923315
 20
156.705540264572
 10
168.1318347557115
 20
156.7751501907426
 10
168.2208689189692
 20
156.8455903934034
 10
168.3090379128496
 20
156.9168695064625
 10
168.389090180201
 20
156.982953026879
 10
168.4683979596634
 20
157.0497553702496
 10
168.5469528791429
 20
157.1172831868821
 10
168.6247465665456
 20
157.1855431270842
 10
168.7017706497775
 20
157.2545418411636
 10
168.7780167567447
 20
157.3242859794281
 10
168.8534765153534
 20
157.3947821921852
 10
168.9281415535095
 20
157.4660371297429
 10
169.0020034991192
 20
157.5380574424088
 10
169.0750539800885
 20
157.6108497804906
 10
169.1472846243235
 20
157.684420794296
 10
169.2186870597304
 20
157.7587771341329
 10
169.2852432621988
 20
157.8296098099185
 10
169.3510487439726
 20
157.9011521106668
 10
169.4160964877236
 20
157.9734096105378
 10
169.4803794761238
 20
158.0463878836913
 10
169.5438906918452
 20
158.1200925042874
 10
169.604258821058
 20
158.1916932679598
 10
169.6638998493948
 20
158.2639764657268
 10
169.7228075278591
 20
158.3369470614302
 10
169.7809756074546
 20
158.4106100189117
 10
169.8383978391848
 20
158.4849703020131
 10
169.8950679740532
 20
158.560032874576
 10
169.9478053416208
 20
158.6314538569696
 10
169.9998633174084
 20
158.7035077337126
 10
170.0512366636274
 20
158.7761986654018
 10
170.1019201424893
 20
158.8495308126337
 10
170.1519085162056
 20
158.9235083360051
 10
170.2011965469876
 20
158.9981353961124
 10
170.2497789970469
 20
159.0734161535523
 10
170.2976506285949
 20
159.1493547689215
 10
170.344806203843
 20
159.2259554028166
 10
170.3912404850026
 20
159.3032222158342
 10
170.4361384258782
 20
159.3797617312966
 10
170.4803305885956
 20
159.4569518011942
 10
170.5238120109812
 20
159.5347963671909
 10
170.5665777308615
 20
159.6132993709507
 10
170.6093805400978
 20
159.6939102804008
 10
170.6514310026421
 20
159.7752120353675
 10
170.6927238807059
 20
159.8572087964477
 10
170.7332539365005
 20
159.9399047242379
 10
170.7730159322374
 20
160.0233039793347
 10
170.8113152148786
 20
160.1059025880485
 10
170.8488636086928
 20
160.1891875845064
 10
170.8856561515066
 20
160.2731629103723
 10
170.9216878811464
 20
160.3578325073105
 10
170.9576655404906
 20
160.4449498148428
 10
170.992840577188
 20
160.5327983123399
 10
171.0272077190162
 20
160.6213821877507
 10
171.0607616937527
 20
160.7107056290241
 10
171.0934972291753
 20
160.8007728241091
 10
171.1254090530614
 20
160.8915879609544
 10
171.1564918931886
 20
160.9831552275089
 10
171.1866753923574
 20
161.0752765521375
 10
171.2160230341746
 20
161.168155058326
 10
171.244529580852
 20
161.2617949066709
 10
171.2721897946008
 20
161.3562002577689
 10
171.2989984376325
 20
161.4513752722167
 10
171.3244943903566
 20
161.5456039286258
 10
171.3491588994884
 20
161.6405829608308
 10
171.3729870028541
 20
161.7363163104957
 10
171.3959737382804
 20
161.8328079192844
 10
171.4157825884168
 20
161.9196051015695
 10
171.4349132173916
 20
162.0070127112548
 10
171.4533620932277
 20
162.0950335539387
 10
171.4711256839478
 20
162.18367043522
 10
171.4882004575749
 20
162.2729261606971
 10
171.5045828821318
 20
162.3628035359686
 10
171.5202694256414
 20
162.4533053666331
 10
171.5352565561267
 20
162.5444344582891
 10
171.5495407416104
 20
162.6361936165354
 10
171.5631184501155
 20
162.7285856469703
 10
171.5759861496647
 20
162.8216133551925
 10
171.5881403082811
 20
162.9152795468005
 10
171.5995773939875
 20
163.0095870273929
 10
171.6102938748068
 20
163.1045386025684
 10
171.6202862187617
 20
163.2001370779254
 10
171.6295508938753
 20
163.2963852590625
 10
171.6384724253888
 20
163.3979165938284
 10
171.6465873989052
 20
163.5001672893184
 10
171.6538917534706
 20
163.6031405713196
 10
171.6603814281315
 20
163.7068396656191
 10
171.666052361934
 20
163.8112677980039
 10
171.6709004939245
 20
163.9164281942609
  0
ENDSEC
  0
SECTION
  2
OBJECTS
  0
DICTIONARY
  5
C
330
0
100
AcDbDictionary
281
    1
  3
ACAD_GROUP
350
D
  0
DICTIONARY
  5
D
330
C
100
AcDbDictionary
281
    1
  0
PLOTSETTINGS
  5
90
100
AcDbPlotSettings
  6
1x1
 40
0
 41
0
 42
0
 43
0
  0
ENDSEC
  0
EOF
